<svg width="104" height="104" viewBox="0 0 104 104" fill="none" xmlns="http://www.w3.org/2000/svg">
<path d="M40.6123 59.6001L46.6602 43.8521H48.9053L55.3506 59.6001H52.9766L51.1396 54.8306H44.5547L42.8252 59.6001H40.6123ZM45.1562 53.1333H50.4951L48.8516 48.772C48.3503 47.4471 47.9779 46.3586 47.7344 45.5063C47.5339 46.5161 47.251 47.5187 46.8857 48.5142L45.1562 53.1333ZM58.2501 59.6001V43.8521H60.3341V59.6001H58.2501Z" fill="#1727FF"/>
<path d="M79.5068 5.46826C82.7547 5.46837 85.3877 8.10128 85.3877 11.3491C85.3876 14.5969 82.7546 17.2299 79.5068 17.23C76.5577 17.23 74.1158 15.0589 73.6914 12.228H67.1699V25.77C67.1699 26.1013 66.9015 26.3704 66.5703 26.3706C66.2389 26.3706 65.9707 26.1014 65.9707 25.77V11.6284C65.9708 11.2971 66.239 11.0288 66.5703 11.0288H73.6348C73.801 7.92977 76.3663 5.46827 79.5068 5.46826ZM79.5068 6.66846C76.9223 6.66847 74.8271 8.7628 74.8262 11.3472C74.8712 11.4313 74.8994 11.5263 74.8994 11.6284C74.8994 11.7084 74.8819 11.7843 74.8535 11.854C75.1054 14.2016 77.0923 16.0298 79.5068 16.0298C82.0919 16.0297 84.1874 13.9341 84.1875 11.3491C84.1875 8.76402 82.0919 6.66856 79.5068 6.66846Z" fill="#1727FF"/>
<path d="M79.5068 95.9917C82.7547 95.9916 85.3877 93.3587 85.3877 90.1108C85.3874 86.8632 82.7545 84.2301 79.5068 84.23C76.5581 84.23 74.1163 86.4007 73.6914 89.231H67.1699V75.689C67.1697 75.3579 66.9013 75.0886 66.5703 75.0884C66.2391 75.0884 65.971 75.3578 65.9707 75.689V89.8306C65.9707 90.1619 66.2389 90.4302 66.5703 90.4302H73.6348C73.8004 93.5298 76.3659 95.9917 79.5068 95.9917ZM79.5068 94.7915C76.9222 94.7915 74.827 92.6973 74.8262 90.1128C74.8713 90.0285 74.8994 89.9329 74.8994 89.8306C74.8994 89.7509 74.8818 89.6755 74.8535 89.606C75.1055 87.2585 77.0924 85.4302 79.5068 85.4302C82.0918 85.4303 84.1873 87.5259 84.1875 90.1108C84.1875 92.6959 82.0919 94.7914 79.5068 94.7915Z" fill="#1727FF"/>
<path d="M22.9121 5.46826C19.6644 5.46847 17.0313 8.10134 17.0312 11.3491C17.0314 14.5968 19.6644 17.2298 22.9121 17.23C25.8612 17.23 28.3032 15.0589 28.7275 12.228H35.251V25.77C35.251 26.1014 35.5192 26.3706 35.8506 26.3706C36.1819 26.3705 36.4502 26.1013 36.4502 25.77V11.6284C36.4501 11.2972 36.1818 11.0289 35.8506 11.0288H28.7852C28.6189 7.92975 26.0526 5.46827 22.9121 5.46826ZM22.9121 6.66846C25.4973 6.66847 27.5928 8.76396 27.5928 11.3491V11.3501C27.5487 11.4336 27.5215 11.5274 27.5215 11.6284C27.5215 11.7083 27.5381 11.7843 27.5664 11.854C27.3146 14.2016 25.3266 16.0298 22.9121 16.0298C20.3272 16.0296 18.2316 13.9341 18.2314 11.3491C18.2315 8.76408 20.3271 6.66867 22.9121 6.66846Z" fill="#1727FF"/>
<path d="M57.5254 6.62256C57.5252 3.37482 54.8923 0.741709 51.6445 0.741699C48.3968 0.741817 45.7639 3.37489 45.7637 6.62256C45.7637 9.57167 47.9348 12.0136 50.7656 12.438L50.7656 19.561C50.7657 19.8923 51.0339 20.1606 51.3652 20.1606C51.6965 20.1606 51.9647 19.8923 51.9648 19.561L51.9648 12.4956C55.0639 12.3294 57.5254 9.76308 57.5254 6.62256ZM56.3252 6.62256C56.3252 9.20772 54.2297 11.3032 51.6445 11.3032L51.6436 11.3032C51.5601 11.2591 51.4662 11.232 51.3652 11.2319C51.2853 11.2319 51.2094 11.2485 51.1396 11.2769C48.792 11.025 46.9639 9.03708 46.9639 6.62256C46.9641 4.03763 49.0596 1.94201 51.6445 1.94189C54.2296 1.9419 56.325 4.03757 56.3252 6.62256Z" fill="#1727FF"/>
<path d="M9.7959 45.5898C6.54816 45.5901 3.91505 48.2229 3.91504 51.4707C3.91516 54.7184 6.54823 57.3514 9.7959 57.3516C12.745 57.3516 15.187 55.1805 15.6113 52.3496L22.7344 52.3496C23.0657 52.3495 23.334 52.0813 23.334 51.75C23.3339 51.4188 23.0656 51.1505 22.7344 51.1504L15.6689 51.1504C15.5027 48.0513 12.9364 45.5899 9.7959 45.5898ZM9.7959 46.79C12.3811 46.79 14.4766 48.8855 14.4766 51.4707L14.4766 51.4717C14.4325 51.5551 14.4053 51.649 14.4053 51.75C14.4053 51.8299 14.4218 51.9059 14.4502 51.9756C14.1983 54.3232 12.2104 56.1514 9.7959 56.1514C7.21097 56.1512 5.11535 54.0556 5.11523 51.4707C5.11524 48.8857 7.21091 46.7903 9.7959 46.79Z" fill="#1727FF"/>
<path d="M57.5254 96.3193C57.5252 99.5671 54.8923 102.2 51.6445 102.2C48.3968 102.2 45.7639 99.567 45.7637 96.3193C45.7637 93.3702 47.9348 90.9283 50.7656 90.5039L50.7656 83.3809C50.7657 83.0496 51.0339 82.7813 51.3652 82.7813C51.6965 82.7813 51.9647 83.0496 51.9648 83.3809L51.9648 90.4463C55.0639 90.6125 57.5254 93.1788 57.5254 96.3193ZM56.3252 96.3193C56.3252 93.7342 54.2297 91.6387 51.6445 91.6387L51.6436 91.6387C51.5601 91.6828 51.4662 91.7099 51.3652 91.71C51.2853 91.71 51.2094 91.6934 51.1396 91.665C48.792 91.9169 46.9639 93.9048 46.9639 96.3193C46.9641 98.9043 49.0596 101 51.6445 101C54.2296 101 56.325 98.9043 56.3252 96.3193Z" fill="#1727FF"/>
<path d="M93.4932 45.5898C96.7409 45.5901 99.374 48.2229 99.374 51.4707C99.3739 54.7184 96.7408 57.3514 93.4932 57.3516C90.5441 57.3516 88.1021 55.1805 87.6777 52.3496L80.5547 52.3496C80.2234 52.3495 79.9551 52.0813 79.9551 51.75C79.9552 51.4188 80.2235 51.1505 80.5547 51.1504L87.6201 51.1504C87.7863 48.0513 90.3526 45.5899 93.4932 45.5898ZM93.4932 46.79C90.908 46.79 88.8125 48.8855 88.8125 51.4707L88.8125 51.4717C88.8566 51.5551 88.8838 51.649 88.8838 51.75C88.8838 51.8299 88.8672 51.9059 88.8389 51.9756C89.0907 54.3232 91.0786 56.1514 93.4932 56.1514C96.0781 56.1512 98.1737 54.0556 98.1738 51.4707C98.1738 48.8857 96.0782 46.7902 93.4932 46.79Z" fill="#1727FF"/>
<path d="M22.9121 95.9917C19.6644 95.9915 17.0313 93.3586 17.0312 90.1108C17.0315 86.8633 19.6645 84.2302 22.9121 84.23C25.8608 84.23 28.3027 86.4007 28.7275 89.231H35.251V75.689C35.2512 75.3578 35.5194 75.0884 35.8506 75.0884C36.1817 75.0885 36.4499 75.3579 36.4502 75.689V89.8306C36.4502 90.1619 36.1819 90.4301 35.8506 90.4302H28.7852C28.6195 93.5298 26.053 95.9917 22.9121 95.9917ZM22.9121 94.7915C25.4973 94.7915 27.5928 92.696 27.5928 90.1108V90.1099C27.5486 90.0263 27.5215 89.9317 27.5215 89.8306C27.5215 89.7509 27.5382 89.6754 27.5664 89.606C27.3144 87.2585 25.3265 85.4302 22.9121 85.4302C20.3273 85.4304 18.2317 87.526 18.2314 90.1108C18.2315 92.6959 20.3271 94.7913 22.9121 94.7915Z" fill="#1727FF"/>
<path d="M99.6934 23.063C99.6931 19.8153 97.0602 17.1821 93.8125 17.1821C90.5647 17.1821 87.9319 19.8153 87.9316 23.063C87.9316 26.0115 90.1016 28.4533 92.9316 28.8784L92.9316 35.4009L82.9893 35.4009C82.658 35.4009 82.3898 35.6693 82.3896 36.0005C82.3896 36.3319 82.6579 36.6001 82.9893 36.6001L93.5312 36.6001C93.8626 36.6001 94.1309 36.3319 94.1309 36.0005L94.1309 28.936C97.2307 28.7707 99.6934 26.2041 99.6934 23.063ZM98.4932 23.063C98.4932 25.6482 96.3977 27.7436 93.8125 27.7437L93.8105 27.7437C93.7269 27.6993 93.6326 27.6714 93.5312 27.6714C93.4515 27.6714 93.3762 27.6891 93.3066 27.7173C90.9594 27.4651 89.1318 25.4772 89.1318 23.063C89.1321 20.478 91.2275 18.3823 93.8125 18.3823C96.3975 18.3823 98.4929 20.478 98.4932 23.063Z" fill="#1727FF"/>
<path d="M3.91504 23.063C3.9153 19.8153 6.54815 17.1821 9.7959 17.1821C13.0437 17.1821 15.6765 19.8153 15.6768 23.063C15.6767 26.0115 13.5068 28.4533 10.6768 28.8784L10.6768 35.4009L20.6191 35.4009C20.9504 35.4009 21.2186 35.6693 21.2188 36.0005C21.2188 36.3319 20.9505 36.6001 20.6191 36.6001L10.0771 36.6001C9.74578 36.6001 9.47754 36.3319 9.47754 36.0005L9.47754 28.936C6.37767 28.7707 3.91505 26.2041 3.91504 23.063ZM5.11523 23.063C5.11524 25.6482 7.21074 27.7436 9.7959 27.7437L9.79785 27.7437C9.88154 27.6993 9.97576 27.6714 10.0771 27.6714C10.1569 27.6714 10.2322 27.6891 10.3018 27.7173C12.649 27.4651 14.4766 25.4772 14.4766 23.063C14.4763 20.478 12.3809 18.3823 9.7959 18.3823C7.21089 18.3823 5.1155 20.478 5.11523 23.063Z" fill="#1727FF"/>
<path d="M99.6934 80.1372C99.6934 83.3851 97.0604 86.0181 93.8125 86.0181C90.5646 86.0181 87.9316 83.3851 87.9316 80.1372C87.9316 77.1887 90.1016 74.7468 92.9316 74.3218L92.9316 67.7993L82.9893 67.7993C82.6579 67.7993 82.3896 67.5311 82.3896 67.1997C82.3898 66.8685 82.658 66.6001 82.9893 66.6001L93.5312 66.6001C93.8625 66.6001 94.1307 66.8685 94.1309 67.1997L94.1309 74.2651C97.2307 74.4305 99.6934 76.9961 99.6934 80.1372ZM98.4932 80.1372C98.4932 77.552 96.3977 75.4566 93.8125 75.4565L93.8115 75.4565C93.7276 75.5013 93.6331 75.5288 93.5312 75.5288C93.4516 75.5288 93.3762 75.5121 93.3066 75.4839C90.9594 75.7361 89.1318 77.723 89.1318 80.1372C89.1318 82.7224 91.2273 84.8179 93.8125 84.8179C96.3977 84.8179 98.4932 82.7224 98.4932 80.1372Z" fill="#1727FF"/>
<path d="M3.91504 80.1372C3.91504 83.3851 6.54799 86.0181 9.7959 86.0181C13.0438 86.0181 15.6768 83.3851 15.6768 80.1372C15.6767 77.1887 13.5068 74.7468 10.6768 74.3218L10.6768 67.7993L20.6191 67.7993C20.9505 67.7993 21.2188 67.5311 21.2188 67.1997C21.2186 66.8685 20.9504 66.6001 20.6191 66.6001L10.0771 66.6001C9.74587 66.6001 9.47768 66.8685 9.47754 67.1997L9.47754 74.2651C6.37768 74.4305 3.91505 76.9961 3.91504 80.1372ZM5.11523 80.1372C5.11524 77.552 7.21074 75.4566 9.7959 75.4565L9.79688 75.4565C9.88081 75.5013 9.97534 75.5288 10.0771 75.5288C10.1568 75.5288 10.2322 75.5121 10.3018 75.4839C12.649 75.7361 14.4766 77.723 14.4766 80.1372C14.4766 82.7224 12.3811 84.8179 9.7959 84.8179C7.21073 84.8179 5.11523 82.7224 5.11523 80.1372Z" fill="#1727FF"/>
<path d="M50.0586 25.4531C51.0641 24.8727 52.3021 24.8727 53.3076 25.4531L73.5146 37.1191C74.5202 37.6997 75.1396 38.7725 75.1396 39.9336V63.2666C75.1396 64.4277 74.5202 65.5005 73.5146 66.0811L53.3086 77.7471C52.303 78.3276 51.0632 78.3276 50.0576 77.7471L29.8516 66.0811C28.846 65.5005 28.2266 64.4277 28.2266 63.2666V39.9336C28.2266 38.7725 28.846 37.6997 29.8516 37.1191L50.0586 25.4531Z" stroke="#1727FF" stroke-width="1.5"/>
<path d="M50.0586 28.6958C51.0641 28.1152 52.303 28.1152 53.3086 28.6958L70.707 38.7407C71.7126 39.3213 72.332 40.3941 72.332 41.5552V61.645C72.332 62.8061 71.7126 63.8789 70.707 64.4595L53.3086 74.5044C52.303 75.085 51.0641 75.085 50.0586 74.5044L32.6602 64.4595C31.6546 63.8789 31.0352 62.8061 31.0352 61.645V41.5552C31.0352 40.3941 31.6546 39.3213 32.6602 38.7407L50.0586 28.6958Z" stroke="#1727FF" stroke-width="1.5"/>
</svg>
