<svg width="104" height="104" viewBox="0 0 104 104" fill="none" xmlns="http://www.w3.org/2000/svg">
<circle cx="67.4929" cy="59.3469" r="35.4792" stroke="#1727FF" stroke-width="1.5"/>
<circle cx="67.4934" cy="59.3469" r="31.7229" stroke="#1727FF" stroke-width="1.5"/>
<rect x="54.1064" y="8.37354" width="26.7715" height="7.97217" rx="3.98608" stroke="#1727FF" stroke-width="1.5"/>
<rect x="62.6182" y="16.3735" width="9.74805" height="7.45752" rx="1.25" stroke="#1727FF" stroke-width="1.5"/>
<rect x="90.4087" y="22.9044" width="9.74805" height="7.45752" rx="1.25" transform="rotate(37.0337 90.4087 22.9044)" stroke="#1727FF" stroke-width="1.5"/>
<rect x="-0.146998" y="1.05042" width="9.74805" height="7.45752" rx="1.25" transform="matrix(-0.798282 0.602284 0.602284 0.798282 43.9487 22.1544)" stroke="#1727FF" stroke-width="1.5"/>
<line x1="19.501" y1="45.5293" x2="34.0205" y2="45.5293" stroke="#1727FF" stroke-width="2" stroke-linecap="round"/>
<line x1="8.63184" y1="52.5293" x2="31.5729" y2="52.5293" stroke="#1727FF" stroke-width="2" stroke-linecap="round"/>
<line x1="1.52246" y1="59.5293" x2="31.2637" y2="59.5293" stroke="#1727FF" stroke-width="2" stroke-linecap="round"/>
<line x1="8.45605" y1="66.5293" x2="31.9941" y2="66.5293" stroke="#1727FF" stroke-width="2" stroke-linecap="round"/>
<line x1="18.501" y1="73.5293" x2="34.3955" y2="73.5293" stroke="#1727FF" stroke-width="2" stroke-linecap="round"/>
<path d="M67.4941 38.5752C71.031 38.5753 74.4229 39.9805 76.9238 42.4814C79.4248 44.9824 80.83 48.3743 80.8301 51.9111V59.9639L80.8721 60.0273L84.2266 65.0586V72.041H74.748L74.7041 72.2354C74.3304 73.8678 73.4131 75.3254 72.1035 76.3691C70.794 77.4126 69.1686 77.9805 67.4941 77.9805C65.8196 77.9804 64.1943 77.4128 62.8848 76.3691C61.5752 75.3254 60.6588 73.8677 60.2852 72.2354L60.2412 72.041H50.7607V65.0586L54.1152 60.0273L54.1572 59.9639V51.9111C54.1573 48.3743 55.5626 44.9824 58.0635 42.4814C60.5645 39.9804 63.9571 38.5752 67.4941 38.5752ZM63.3721 72.3906C63.7216 73.1931 64.2981 73.8768 65.0303 74.3564C65.7623 74.8359 66.619 75.0908 67.4941 75.0908C68.3691 75.0907 69.2251 74.8359 69.957 74.3564C70.6892 73.8768 71.2657 73.1931 71.6152 72.3906L71.7676 72.041H63.2197L63.3721 72.3906ZM68.9492 61.502V64.4053H66.0449V61.502H68.9492ZM68.9424 48.7646V58.4551H66.0449V48.7646H68.9424ZM81.3301 65.9365L81.2881 65.874L77.9336 60.8418V51.9111C77.9335 49.1425 76.8337 46.487 74.876 44.5293C72.9183 42.5716 70.2628 41.4718 67.4941 41.4717C64.7253 41.4717 62.0692 42.5715 60.1113 44.5293C58.1536 46.487 57.0538 49.1425 57.0537 51.9111V60.8418L53.6992 65.874L53.6572 65.9365V69.1445H81.3301V65.9365Z" fill="#1727FF" stroke="#030815" stroke-width="0.5"/>
</svg>
