<svg width="105" height="108" viewBox="0 0 105 108" fill="none" xmlns="http://www.w3.org/2000/svg">
<path fill-rule="evenodd" clip-rule="evenodd" d="M29.5215 43.2972C29.5215 28.2376 41.7298 16.0293 56.7894 16.0293C71.8491 16.0293 84.0573 28.2376 84.0573 43.2972C84.0573 58.3569 71.8491 70.5652 56.7894 70.5652C41.7298 70.5652 29.5215 58.3569 29.5215 43.2972Z" stroke="#1727FF" stroke-width="1.8" stroke-linecap="round" stroke-linejoin="round"/>
<path fill-rule="evenodd" clip-rule="evenodd" d="M33.2734 43.2968C33.2734 30.3095 43.8017 19.7812 56.789 19.7812C69.7762 19.7812 80.3045 30.3095 80.3045 43.2968C80.3045 56.284 69.7762 66.8123 56.789 66.8123C43.8017 66.8123 33.2734 56.284 33.2734 43.2968Z" stroke="#1727FF" stroke-width="1.2" stroke-linecap="round" stroke-linejoin="round"/>
<path d="M63.9356 36.3116H67.2085C67.2085 31.6691 62.7001 29.5515 59.0263 29.0639V25.6748H55.7535V29.0639C52.0797 29.5515 47.5713 31.6691 47.5713 36.3116C47.5713 40.7398 51.934 43.0423 55.7535 43.561V51.6941C53.3839 51.2833 50.8442 50.0184 50.8442 47.7666H47.5713C47.5713 52.0034 51.5396 54.5071 55.7535 55.0259V58.4035H59.0263V55.016C62.7001 54.5284 67.2085 52.4092 67.2085 47.7666C67.2085 43.1241 62.7001 41.0065 59.0263 40.5189V32.3842C61.2028 32.7753 63.9356 33.9241 63.9356 36.3116ZM50.8442 36.3116C50.8442 33.9241 53.577 32.7753 55.7535 32.3842V40.2374C53.5099 39.8234 50.8442 38.5977 50.8442 36.3116ZM63.9356 47.7666C63.9356 50.1542 61.2028 51.303 59.0263 51.6941V43.8392C61.2028 44.2303 63.9356 45.3791 63.9356 47.7666Z" fill="#1727FF"/>
<path d="M63.1353 89.8271L53.2859 89.9066C53.1342 89.9078 52.9822 89.8766 52.8408 89.8127L46.6316 87.1212C46.0879 86.8872 45.8336 86.2499 46.0675 85.6954C46.3015 85.1517 46.9388 84.8973 47.4933 85.1312L53.4959 87.7377L63.1178 87.66C63.898 87.6537 64.5655 87.1174 64.7328 86.3575C64.8375 85.9015 64.7469 85.4255 64.4837 85.0375C64.2205 84.6495 63.8175 84.3927 63.351 84.3206L56.0819 83.2306C55.8215 83.1894 55.5821 83.0613 55.4071 82.8568C55.3742 82.8137 51.7207 78.5737 45.8695 78.621C40.0184 78.6682 36.5328 83.15 36.4899 83.2045C36.3612 83.3789 36.1673 83.5105 35.9619 83.5772L30.556 87.6514C29.9832 87.8403 29.3738 87.5201 29.1958 86.9472C29.0069 86.3744 29.3271 85.765 29.9 85.587L35.0033 81.6127C35.9479 80.4998 39.7733 76.5029 45.8629 76.4538C51.9524 76.4046 55.731 80.0259 56.7912 81.1552L63.6697 82.1941C64.7221 82.3482 65.6697 82.9474 66.2728 83.8311C66.8759 84.7148 67.0799 85.8184 66.839 86.8498C66.4412 88.5868 64.9124 89.8128 63.1245 89.8272L63.1353 89.8271Z" fill="#1727FF"/>
<path d="M55.824 98.3388C54.9897 98.3455 54.1546 98.2547 53.3512 98.0661L39.3899 94.8521L33.2845 96.9602C32.7117 97.1491 32.1024 96.8506 31.9028 96.2887C31.7033 95.7268 32.0125 95.1067 32.5744 94.9071L38.9716 92.6991C39.1661 92.6325 39.3719 92.62 39.5674 92.6726L53.8326 95.9492C55.5696 96.347 57.3996 96.1913 59.0411 95.4954L83.6747 85.1106C84.3226 84.8345 84.8168 84.2995 85.039 83.6367C85.2612 82.9739 85.1686 82.2378 84.817 81.6446C84.2459 80.6957 83.0936 80.2498 82.0344 80.5835L69.2036 84.523C68.6307 84.701 68.0213 84.3809 67.8542 83.8079C67.6762 83.235 67.9963 82.6256 68.5693 82.4584L81.4001 78.5189C83.4214 77.8957 85.5845 78.7235 86.6827 80.5351C87.3638 81.6783 87.5266 83.0532 87.1142 84.3243C86.7019 85.5955 85.7673 86.6108 84.5362 87.13L59.9026 97.5148C58.6067 98.0562 57.2436 98.3381 55.8458 98.3494L55.824 98.3388Z" fill="#1727FF"/>
<path d="M22.6026 90.6039C22.0164 90.6723 21.4352 90.3307 21.2235 89.7611L20.3548 87.4063C20.1034 86.7225 20.4514 85.9689 21.1351 85.7176C21.8189 85.4662 22.5725 85.8141 22.8238 86.4979L23.6926 88.8527C23.9439 89.5365 23.596 90.2901 22.9122 90.5414C22.8111 90.5796 22.7084 90.6048 22.6041 90.617L22.6026 90.6039Z" fill="#1727FF"/>
<path d="M34.4609 102.523L24.1907 106.6L15.4823 83.334L26.2071 79.0772L34.4609 102.523Z" stroke="#1727FF" stroke-width="1.8" stroke-linecap="round" stroke-linejoin="round"/>
<path d="M36.5703 9.33484L27.767 17.6748L18.9637 9.33483L24.5237 9.33484L24.5237 0.994867L31.0103 0.994867L31.0103 9.33484L36.5703 9.33484Z" stroke="#1727FF" stroke-width="1.8" stroke-linecap="round" stroke-linejoin="round"/>
<path d="M93.7881 9.33484L84.9848 17.6748L76.1815 9.33483L81.7415 9.33484L81.7415 0.994867L88.2281 0.994867L88.2281 9.33484L93.7881 9.33484Z" stroke="#1727FF" stroke-width="1.8" stroke-linecap="round" stroke-linejoin="round"/>
</svg>
