<svg width="104" height="104" viewBox="0 0 104 104" fill="none" xmlns="http://www.w3.org/2000/svg">
<g clip-path="url(#clip0_195_3995)">
<g clip-path="url(#clip1_195_3995)">
<path d="M67.6694 50.989C67.6694 55.0458 66.0578 58.9364 63.1892 61.805C60.3207 64.6735 56.43 66.2851 52.3733 66.2851C48.3165 66.2851 44.4258 64.6735 41.5573 61.805C38.6887 58.9364 37.0771 55.0458 37.0771 50.989C37.0771 46.9322 38.6887 43.0416 41.5573 40.173C44.4258 37.3044 48.3165 35.6929 52.3733 35.6929C56.43 35.6929 60.3207 37.3044 63.1892 40.173C66.0578 43.0416 67.6694 46.9322 67.6694 50.989Z" stroke="#1727FF" stroke-width="2"/>
<path d="M60.5699 81.156C55.3756 82.5604 49.9063 82.5963 44.694 81.2603C44.9651 79.4191 44.6808 77.5388 43.8773 75.8601C43.0738 74.1814 41.7876 72.7806 40.1835 71.8369C38.5794 70.8933 36.7301 70.4498 34.8725 70.5631C33.0148 70.6764 31.2332 71.3414 29.7557 72.473C28.3085 70.9384 27.0208 69.261 25.9124 67.4664C24.1979 64.6965 22.9682 61.7622 22.2043 58.7631L22.3157 58.6942C23.6674 57.8581 24.7838 56.6912 25.5593 55.3038C26.3348 53.9164 26.744 52.3542 26.748 50.7648C26.7521 49.1754 26.351 47.6111 25.5826 46.2197C24.8142 44.8284 23.7039 43.6558 22.3565 42.8127C23.6746 37.9967 26.1304 33.5678 29.517 29.8988C30.992 30.7939 32.6859 31.2636 34.4113 31.2558C36.1366 31.248 37.8262 30.763 39.293 29.8546C40.7603 28.9469 41.9479 27.6509 42.7244 26.1101C43.5008 24.5693 43.8359 22.8438 43.6925 21.1244C48.4869 19.7295 53.5461 19.5067 58.4446 20.4747C58.5991 22.0679 59.16 23.5948 60.0735 24.9092C60.987 26.2236 62.2226 27.2815 63.662 27.9817C65.1014 28.6818 66.6964 29.0008 68.2944 28.9081C69.8924 28.8154 71.4398 28.3141 72.7886 27.4522C75.1884 29.5262 77.2576 31.9543 78.9247 34.6526C80.0568 36.4815 80.977 38.3829 81.6926 40.3266C80.0208 41.1444 78.631 42.4425 77.7011 44.0546C76.7713 45.6668 76.3435 47.5197 76.4727 49.3763C76.6019 51.2329 77.282 53.0088 78.4262 54.4766C79.5704 55.9445 81.1265 57.0376 82.8954 57.616C81.7661 62.8767 79.2945 67.7555 75.7208 71.7778C74.2128 70.4919 72.3355 69.7181 70.3593 69.5678C68.3832 69.4175 66.4104 69.8986 64.7253 70.9416C63.0402 71.9847 61.7298 73.5359 60.983 75.3716C60.2362 77.2074 60.0916 79.2328 60.5699 81.156Z" stroke="#1727FF" stroke-width="2" stroke-linejoin="round"/>
<path d="M80.1338 6.20996C83.3817 6.20997 86.0146 8.84292 86.0146 12.0908C86.0146 15.3387 83.3816 17.9717 80.1338 17.9717C77.1846 17.9717 74.7427 15.8006 74.3184 12.9697H67.7969V22.9121C67.7969 23.2435 67.5286 23.5117 67.1973 23.5117C66.8661 23.5115 66.5977 23.2434 66.5977 22.9121V12.3701C66.5978 12.039 66.8661 11.7707 67.1973 11.7705H74.2617C74.428 8.67148 76.9933 6.20997 80.1338 6.20996ZM80.1338 7.41016C77.5499 7.41017 75.4552 9.50347 75.4531 12.0869C75.4988 12.1715 75.5263 12.2672 75.5264 12.3701C75.5264 12.4508 75.5094 12.5274 75.4805 12.5977C75.7332 14.9443 77.7199 16.7715 80.1338 16.7715C82.7189 16.7715 84.8144 14.6759 84.8145 12.0908C84.8144 9.50566 82.7189 7.41017 80.1338 7.41016ZM80.1895 8.78027C81.9754 8.78027 83.4238 10.2278 83.4238 12.0137C83.4238 13.7996 81.9754 15.2471 80.1895 15.2471C78.4036 15.2469 76.9561 13.7995 76.9561 12.0137C76.9561 10.2278 78.4036 8.7804 80.1895 8.78027Z" fill="#1727FF"/>
<path d="M80.1338 96.7339C83.3816 96.7339 86.0145 94.1008 86.0146 90.853C86.0146 87.6051 83.3817 84.9722 80.1338 84.9722C77.1848 84.9722 74.7429 87.1425 74.3184 89.9731H67.7969V80.0308C67.7969 79.6994 67.5286 79.4312 67.1973 79.4312C66.8661 79.4314 66.5977 79.6995 66.5977 80.0308V90.5728C66.5978 90.9039 66.8662 91.1722 67.1973 91.1724H74.2617C74.4277 94.2716 76.9931 96.7339 80.1338 96.7339ZM80.1338 95.5337C77.5497 95.5337 75.4549 93.4397 75.4531 90.856C75.4988 90.7714 75.5263 90.6757 75.5264 90.5728C75.5264 90.4921 75.5093 90.4155 75.4805 90.3452C75.7335 87.9988 77.7201 86.1724 80.1338 86.1724C82.719 86.1724 84.8145 88.2679 84.8145 90.853C84.8143 93.4381 82.7189 95.5337 80.1338 95.5337ZM80.1895 94.1519C81.9753 94.1519 83.4236 92.7042 83.4238 90.9185C83.4238 89.1325 81.9754 87.6841 80.1895 87.6841C78.4036 87.6842 76.9561 89.1326 76.9561 90.9185C76.9562 92.7042 78.4037 94.1517 80.1895 94.1519Z" fill="#1727FF"/>
<path d="M23.54 6.20996C20.2922 6.21005 17.6592 8.84297 17.6592 12.0908C17.6593 15.3386 20.2923 17.9716 23.54 17.9717C26.4892 17.9717 28.9311 15.8006 29.3555 12.9697H35.8789V22.9121C35.8789 23.2435 36.1471 23.5117 36.4785 23.5117C36.8097 23.5115 37.0781 23.2433 37.0781 22.9121V12.3701C37.078 12.039 36.8096 11.7707 36.4785 11.7705H29.4121C29.2458 8.67149 26.6805 6.20997 23.54 6.20996ZM23.54 7.41016C26.1252 7.41017 28.2217 9.50566 28.2217 12.0908C28.1772 12.1746 28.1495 12.2686 28.1494 12.3701C28.1494 12.4493 28.1655 12.5246 28.1934 12.5938C27.9424 14.9423 25.9552 16.7715 23.54 16.7715C20.955 16.7714 18.8595 14.6759 18.8594 12.0908C18.8594 9.50571 20.9549 7.41025 23.54 7.41016ZM23.541 8.85645C21.7552 8.85658 20.3076 10.305 20.3076 12.0908C20.3078 13.8765 21.7553 15.3241 23.541 15.3242C25.3268 15.3242 26.7752 13.8766 26.7754 12.0908C26.7754 10.3049 25.327 8.85645 23.541 8.85645Z" fill="#1727FF"/>
<path d="M23.54 96.7339C20.2923 96.7338 17.6593 94.1008 17.6592 90.853C17.6592 87.6052 20.2922 84.9723 23.54 84.9722C26.489 84.9722 28.9309 87.1425 29.3555 89.9731H35.8789V80.0308C35.8789 79.6994 36.1471 79.4312 36.4785 79.4312C36.8097 79.4314 37.0781 79.6995 37.0781 80.0308V90.5728C37.078 90.9039 36.8096 91.1721 36.4785 91.1724H29.4121C29.2461 94.2716 26.6807 96.7339 23.54 96.7339ZM23.54 95.5337C26.1251 95.5337 28.2205 93.4381 28.2207 90.853V90.8521C28.1763 90.7684 28.1495 90.6741 28.1494 90.5728C28.1494 90.4939 28.1657 90.419 28.1934 90.3501C27.9426 88.0014 25.9554 86.1724 23.54 86.1724C20.9549 86.1725 18.8594 88.2679 18.8594 90.853C18.8595 93.438 20.955 95.5336 23.54 95.5337ZM23.5879 94.1519C21.8022 94.1517 20.3547 92.7042 20.3545 90.9185C20.3545 89.1326 21.8021 87.6842 23.5879 87.6841C25.3738 87.6841 26.8223 89.1325 26.8223 90.9185C26.8221 92.7042 25.3737 94.1519 23.5879 94.1519Z" fill="#1727FF"/>
<path d="M1.30371 33.9272C1.30371 30.6793 3.93666 28.0464 7.18457 28.0464C10.4325 28.0464 13.0654 30.6793 13.0654 33.9272C13.0652 36.8756 10.8953 39.3166 8.06543 39.7417L8.06543 46.2651L18.0078 46.2651C18.339 46.2654 18.6074 46.5335 18.6074 46.8647C18.6073 47.1959 18.3389 47.4641 18.0078 47.4644L7.46582 47.4644C7.13454 47.4644 6.86636 47.196 6.86621 46.8647L6.86621 39.7993C3.76645 39.634 1.30391 37.0682 1.30371 33.9272ZM2.50391 33.9272C2.50411 36.5122 4.59953 38.6079 7.18457 38.6079L7.18555 38.6079C7.26941 38.5633 7.36415 38.5356 7.46582 38.5356C7.54548 38.5357 7.62093 38.5523 7.69043 38.5806C10.0375 38.3284 11.865 36.3413 11.8652 33.9272C11.8652 31.3421 9.76974 29.2466 7.18457 29.2466C4.5994 29.2466 2.50391 31.3421 2.50391 33.9272ZM4.00195 33.9751C4.00195 32.1893 5.44962 30.741 7.23535 30.7407C9.02129 30.7407 10.4697 32.1892 10.4697 33.9751C10.4695 35.7608 9.02114 37.2085 7.23535 37.2085C5.44976 37.2083 4.00219 35.7607 4.00195 33.9751Z" fill="#1727FF"/>
<path d="M103.32 32.1514C103.32 28.9035 100.687 26.2706 97.4395 26.2705C94.1915 26.2705 91.5586 28.9034 91.5586 32.1514C91.5587 35.0999 93.7285 37.5408 96.5586 37.9658L96.5586 44.4893L86.6162 44.4893C86.2849 44.4894 86.0166 44.7576 86.0166 45.0889C86.0168 45.42 86.285 45.6884 86.6162 45.6885L97.1582 45.6885C97.4895 45.6885 97.7576 45.4201 97.7578 45.0889L97.7578 38.0234C100.858 37.858 103.32 35.2923 103.32 32.1514ZM102.12 32.1514C102.12 34.7364 100.024 36.8319 97.4395 36.832L97.4385 36.832C97.3546 36.7873 97.26 36.7598 97.1582 36.7598C97.0785 36.7598 97.0031 36.7765 96.9336 36.8047C94.5863 36.5526 92.7589 34.5656 92.7588 32.1514C92.7588 29.5662 94.8543 27.4707 97.4395 27.4707C100.025 27.4708 102.12 29.5663 102.12 32.1514ZM100.659 32.1299C100.659 30.344 99.2107 28.8965 97.4248 28.8965C95.639 28.8966 94.1914 30.344 94.1914 32.1299C94.1914 33.9157 95.639 35.3632 97.4248 35.3633C99.2107 35.3633 100.659 33.9158 100.659 32.1299Z" fill="#1727FF"/>
<path d="M1.30371 68.5015C1.30371 71.7494 3.93666 74.3823 7.18457 74.3823C10.4325 74.3823 13.0654 71.7494 13.0654 68.5015C13.0654 65.553 10.8954 63.1121 8.06543 62.687L8.06543 56.1636L18.0078 56.1636C18.339 56.1634 18.6074 55.8952 18.6074 55.564C18.6074 55.2327 18.339 54.9646 18.0078 54.9644L7.46582 54.9644C7.13446 54.9644 6.86622 55.2326 6.86621 55.564L6.86621 62.6294C3.76638 62.7948 1.30378 65.3604 1.30371 68.5015ZM2.50391 68.5015C2.50398 65.9164 4.59945 63.8208 7.18457 63.8208L7.18555 63.8208C7.26938 63.8654 7.36419 63.8931 7.46582 63.8931C7.54544 63.893 7.62096 63.8763 7.69043 63.8481C10.0376 64.1004 11.8652 66.0873 11.8652 68.5015C11.8652 71.0866 9.76974 73.1821 7.18457 73.1821C4.5994 73.1821 2.50391 71.0866 2.50391 68.5015ZM4.00195 68.5317C4.00195 70.3175 5.44962 71.7649 7.23535 71.7651C9.02129 71.7651 10.4697 70.3177 10.4697 68.5317C10.4696 66.7459 9.02124 65.2983 7.23535 65.2983C5.44967 65.2986 4.00203 66.746 4.00195 68.5317Z" fill="#1727FF"/>
<path d="M103.32 68.5015C103.32 71.7493 100.687 74.3822 97.4395 74.3823C94.1915 74.3823 91.5586 71.7494 91.5586 68.5015C91.5587 65.5529 93.7285 63.112 96.5586 62.687L96.5586 56.1636L86.6162 56.1636C86.2849 56.1635 86.0166 55.8953 86.0166 55.564C86.0166 55.2327 86.2849 54.9644 86.6162 54.9644L97.1582 54.9644C97.4896 54.9644 97.7578 55.2326 97.7578 55.564L97.7578 62.6294C100.858 62.7949 103.32 65.3605 103.32 68.5015ZM102.12 68.5015C102.12 65.9164 100.024 63.8209 97.4395 63.8208L97.4385 63.8208C97.3546 63.8654 97.2599 63.8931 97.1582 63.8931C97.0786 63.893 97.0031 63.8763 96.9336 63.8481C94.5863 64.1003 92.7589 66.0872 92.7588 68.5015C92.7588 71.0866 94.8543 73.1821 97.4395 73.1821C100.025 73.182 102.12 71.0866 102.12 68.5015ZM100.719 68.5444C100.719 70.3303 99.2712 71.7778 97.4854 71.7778C95.6995 71.7778 94.2521 70.3302 94.252 68.5444C94.252 66.7585 95.6994 65.3101 97.4854 65.3101C99.2713 65.3101 100.719 66.7585 100.719 68.5444Z" fill="#1727FF"/>
</g>
</g>
<defs>
<clipPath id="clip0_195_3995">
<rect width="103" height="103" fill="white" transform="translate(0.217773 0.289062)"/>
</clipPath>
<clipPath id="clip1_195_3995">
<rect width="104.75" height="92.3221" fill="white" transform="translate(-0.103516 6.18018)"/>
</clipPath>
</defs>
</svg>
