<svg width="53" height="53" viewBox="0 0 53 53" fill="none" xmlns="http://www.w3.org/2000/svg">
<circle cx="26.497" cy="26.5439" r="25.0711" fill="url(#paint0_linear_195_3114)" fill-opacity="0.06" stroke="white" stroke-width="1.1483"/>
<path d="M28.8906 17.6426L30.1748 17.6943C30.364 17.7019 30.5557 17.7244 30.7568 17.75V20.1748C30.1142 20.1802 29.4527 20.1783 28.8096 20.209C28.4444 20.2236 28.1232 20.3314 27.8672 20.542C27.6115 20.7523 27.4472 21.0436 27.3564 21.3789L27.3545 21.3848C27.3147 21.5443 27.2857 21.7246 27.2852 21.8994C27.2733 22.673 27.2734 23.4466 27.2734 24.2168C27.2735 24.2666 27.2819 24.3122 27.2871 24.3398C27.2916 24.3639 27.3002 24.4061 27.3037 24.4238L27.3574 24.6904H30.6045C30.4874 25.6188 30.3692 26.5165 30.252 27.4424H27.2852V36.2168H24.4062V27.4307H21.4688V24.667H24.4062V24.1094C24.4062 23.3794 24.3945 22.6672 24.4062 21.96C24.418 21.5005 24.4421 21.0637 24.5303 20.6445L24.5312 20.6396C24.8472 19.0149 26.0114 17.933 27.6514 17.7031L27.6504 17.7021C28.0639 17.6455 28.4737 17.6352 28.8906 17.6426Z" fill="white" stroke="white" stroke-width="0.66346"/>
<defs>
<linearGradient id="paint0_linear_195_3114" x1="2" y1="3.52336" x2="51.1323" y2="3.6714" gradientUnits="userSpaceOnUse">
<stop stop-color="white"/>
<stop offset="1" stop-color="white"/>
</linearGradient>
</defs>
</svg>
