<svg width="52" height="53" viewBox="0 0 52 53" fill="none" xmlns="http://www.w3.org/2000/svg">
<circle cx="26.0048" cy="26.5439" r="25.0711" fill="url(#paint0_linear_195_3130)" fill-opacity="0.06" stroke="white" stroke-width="1.1483"/>
<path d="M21.291 15.8857H30.7217C32.2977 15.8875 33.8094 16.5136 34.9238 17.6279C36.0383 18.7424 36.6652 20.254 36.667 21.8301V31.2607C36.6652 32.8368 36.0383 34.3484 34.9238 35.4629C33.8094 36.5773 32.2978 37.2043 30.7217 37.2061H21.291C19.7149 37.2043 18.2033 36.5773 17.0889 35.4629C15.9745 34.3484 15.3485 32.8368 15.3467 31.2607V21.8301C15.3485 20.254 15.9744 18.7424 17.0889 17.6279C18.2033 16.5135 19.7149 15.8875 21.291 15.8857ZM27.9971 21.7402C27.0467 21.3466 26.0011 21.2437 24.9922 21.4443C23.9832 21.645 23.0556 22.1397 22.3281 22.8672C21.6007 23.5946 21.106 24.5223 20.9053 25.5312C20.7047 26.5401 20.8075 27.5858 21.2012 28.5361C21.5948 29.4864 22.2611 30.2986 23.1162 30.8701C23.9716 31.4417 24.9781 31.7471 26.0068 31.7471C27.3858 31.7454 28.7076 31.1967 29.6826 30.2217C30.6577 29.2466 31.2064 27.9248 31.208 26.5459C31.208 25.5171 30.9026 24.5107 30.3311 23.6553C29.7595 22.8002 28.9473 22.1339 27.9971 21.7402ZM26.0068 23.1729C26.9007 23.174 27.7575 23.5301 28.3896 24.1621C29.0219 24.7944 29.3779 25.6518 29.3789 26.5459C29.3788 27.2127 29.181 27.8645 28.8105 28.4189C28.44 28.9735 27.9131 29.4059 27.2969 29.6611C26.6807 29.9163 26.0027 29.9836 25.3486 29.8535C24.6946 29.7234 24.0937 29.4021 23.6221 28.9307C23.1504 28.459 22.8293 27.8573 22.6992 27.2031C22.5692 26.549 22.6354 25.871 22.8906 25.2549C23.1459 24.6387 23.5782 24.1118 24.1328 23.7412C24.6874 23.3707 25.3399 23.1729 26.0068 23.1729ZM31.3174 19.6553C31.057 19.7071 30.8177 19.8347 30.6299 20.0225C30.4421 20.2102 30.3136 20.4495 30.2617 20.71C30.2099 20.9705 30.2372 21.2409 30.3389 21.4863C30.4405 21.7316 30.6123 21.9413 30.833 22.0889C31.0538 22.2364 31.3136 22.3153 31.5791 22.3154C31.9354 22.3154 32.2774 22.1738 32.5293 21.9219C32.7811 21.67 32.9228 21.3288 32.9229 20.9727C32.9229 20.7071 32.8438 20.4474 32.6963 20.2266C32.5487 20.0057 32.3391 19.8331 32.0938 19.7314C31.8483 19.6298 31.5779 19.6034 31.3174 19.6553Z" fill="white" stroke="white" stroke-width="0.114291"/>
<defs>
<linearGradient id="paint0_linear_195_3130" x1="1.50781" y1="3.52336" x2="50.6401" y2="3.6714" gradientUnits="userSpaceOnUse">
<stop stop-color="white"/>
<stop offset="1" stop-color="white"/>
</linearGradient>
</defs>
</svg>
