<svg width="52" height="53" viewBox="0 0 52 53" fill="none" xmlns="http://www.w3.org/2000/svg">
<circle cx="26.3329" cy="26.5439" r="25.0711" fill="url(#paint0_linear_195_3118)" fill-opacity="0.06" stroke="white" stroke-width="1.1483"/>
<path d="M30.6807 24.0684C31.3978 24.0041 32.1071 24.0582 32.79 24.2676V24.2686C33.866 24.6137 34.5286 25.352 34.8164 26.4277V26.4287C34.9695 27.0191 35.0193 27.6145 35.127 28.2725L35.1279 28.2793C35.1464 28.3808 35.1562 28.4853 35.167 28.6143V35.3438H32.2109C32.2112 33.4302 32.2215 31.5206 32.1992 29.6016C32.1989 29.2227 32.1593 28.8409 32.0947 28.4717L32.0225 28.1064C31.9444 27.7432 31.7932 27.4114 31.5488 27.1455C31.3019 26.877 30.9754 26.693 30.5781 26.6055H30.5742C30.3419 26.5571 30.1056 26.5378 29.8711 26.542L29.6377 26.5537C29.1246 26.5921 28.6718 26.7499 28.3145 27.0479C27.9554 27.3473 27.7202 27.7657 27.6045 28.2734V28.2754C27.486 28.8088 27.4271 29.3752 27.4268 29.918C27.4055 31.7459 27.4129 33.5653 27.4141 35.3877C26.4452 35.3803 25.4634 35.378 24.4814 35.3779V24.3418H27.2793V26.5225L27.9014 25.7881C28.1714 25.4689 28.3552 25.2109 28.5967 24.9795L28.5977 24.9805C29.1778 24.4308 29.8811 24.1421 30.6816 24.0693L30.6807 24.0684Z" fill="white" stroke="white" stroke-width="0.705223"/>
<path d="M21.4893 24.3408V35.377H18.5439V24.3408H21.4893Z" fill="white" stroke="white" stroke-width="0.705223"/>
<path d="M20.0479 18.4658C21.0242 18.4947 21.7909 19.2896 21.7725 20.2422V20.2432C21.7533 21.2497 20.9399 22.027 19.9658 21.999H19.9629C19.0314 21.9804 18.2321 21.1504 18.251 20.1885C18.2698 19.233 19.0894 18.4484 20.0479 18.4658Z" fill="white" stroke="white" stroke-width="0.705223"/>
<defs>
<linearGradient id="paint0_linear_195_3118" x1="1.83594" y1="3.52336" x2="50.9682" y2="3.6714" gradientUnits="userSpaceOnUse">
<stop stop-color="white"/>
<stop offset="1" stop-color="white"/>
</linearGradient>
</defs>
</svg>
