<svg width="52" height="53" viewBox="0 0 52 53" fill="none" xmlns="http://www.w3.org/2000/svg">
<circle cx="26.1689" cy="26.5439" r="25.0711" fill="url(#paint0_linear_195_3125)" fill-opacity="0.06" stroke="white" stroke-width="1.1483"/>
<path d="M22.7871 18.7881C23.4637 19.7727 24.1385 20.7543 24.8125 21.7363L26.8535 24.71L26.8613 24.7217C26.8722 24.7361 26.8827 24.7517 26.9043 24.7832C26.9234 24.8111 26.9492 24.8469 26.9795 24.8848L27.2344 25.2041L27.501 24.8945C27.7783 24.5729 28.0556 24.2505 28.3223 23.9395L28.3213 23.9385C29.7853 22.2415 31.2511 20.5442 32.7051 18.835L32.71 18.8301C32.7313 18.8041 32.7428 18.7983 32.7461 18.7969C32.7506 18.7949 32.7676 18.7882 32.8125 18.7881C32.9778 18.7925 33.1451 18.7916 33.3145 18.791C31.4153 21.004 29.5213 23.198 27.6406 25.3955L27.4824 25.5811L27.6074 25.791C27.6469 25.8568 27.6873 25.9092 27.7188 25.9512V25.9521C29.7957 28.9771 31.8744 32.0133 33.9619 35.04H29.8545C29.1331 34.0015 28.4138 32.9607 27.6963 31.918L25.5156 28.7412C25.4929 28.7077 25.4674 28.6788 25.4541 28.6631C25.4372 28.6431 25.4282 28.6315 25.4189 28.6191L25.1836 28.3057L24.9072 28.583C24.8445 28.6457 24.7942 28.707 24.7568 28.7559C23.5809 30.1204 22.4048 31.4863 21.2393 32.8516C20.9122 33.2341 20.5819 33.6195 20.252 34.0049C19.9555 34.3512 19.6588 34.6976 19.3643 35.042C19.1717 35.0455 18.9807 35.0477 18.791 35.0488C19.0224 34.7757 19.2528 34.5007 19.4902 34.2236L19.4912 34.2246L24.6494 28.2227L24.6572 28.2139L24.6641 28.2051C24.6983 28.1595 24.7183 28.1334 24.7432 28.1084L24.9434 27.9082L24.7832 27.6758C22.7493 24.7193 20.7252 21.7639 18.6826 18.7881H22.7871ZM19.751 19.7354C19.768 19.7609 19.7806 19.7827 19.793 19.8037C19.8029 19.8206 19.8211 19.8521 19.8389 19.8789V19.8799L19.8438 19.8857C23.2273 24.7226 26.5996 29.5599 29.9834 34.4082V34.4072C30.0335 34.4837 30.1023 34.5581 30.2012 34.6094C30.3031 34.6622 30.4072 34.6748 30.4951 34.6748H32.4248C32.4704 34.6748 32.5158 34.6698 32.5322 34.668C32.5536 34.6656 32.5662 34.6641 32.5801 34.6641H33.2393L32.8564 34.1279L32.7295 33.9443C30.2575 30.3971 27.7744 26.8491 25.3027 23.3135L23.9717 21.4111C23.528 20.7761 23.0836 20.1405 22.6396 19.5078L22.6338 19.499L22.627 19.4912L22.5693 19.4248C22.5469 19.4013 22.5215 19.3771 22.4941 19.3545C22.4666 19.3318 22.4298 19.304 22.3857 19.2812C22.3462 19.2608 22.2789 19.2324 22.1943 19.2305H22.1953C21.4794 19.2081 20.7753 19.208 20.0332 19.208H19.3994L19.751 19.7354Z" fill="white" stroke="white" stroke-width="0.678146"/>
<defs>
<linearGradient id="paint0_linear_195_3125" x1="1.67188" y1="3.52336" x2="50.8041" y2="3.6714" gradientUnits="userSpaceOnUse">
<stop stop-color="white"/>
<stop offset="1" stop-color="white"/>
</linearGradient>
</defs>
</svg>
