<svg width="105" height="104" viewBox="0 0 105 104" fill="none" xmlns="http://www.w3.org/2000/svg">
<path d="M86.1434 20.8337V16.7084C86.1434 11.4065 81.8453 7.1084 76.5434 7.1084H10.6439C5.34201 7.1084 1.04395 11.4065 1.04395 16.7084V89.9125C1.04395 95.2144 5.342 99.5125 10.6439 99.5125H79.9813M86.1434 18.518V57.5432" stroke="#1727FF" stroke-width="1.8"/>
<path d="M86.1434 20.8337V16.7084C86.1434 11.4065 81.8453 7.1084 76.5434 7.1084H10.6439C5.34201 7.1084 1.04395 11.4065 1.04395 16.7084V89.9125C1.04395 95.2144 5.342 99.5125 10.6439 99.5125H79.9813M86.1434 18.518V57.5432" stroke="#1727FF" stroke-width="1.8"/>
<line x1="30.5156" y1="26.3965" x2="60.2568" y2="26.3965" stroke="#1727FF" stroke-width="2" stroke-linecap="round"/>
<line x1="30.5156" y1="46.147" x2="60.2568" y2="46.147" stroke="#1727FF" stroke-width="2" stroke-linecap="round"/>
<line x1="30.5156" y1="64.8408" x2="60.2568" y2="64.8408" stroke="#1727FF" stroke-width="2" stroke-linecap="round"/>
<line x1="30.5156" y1="84.9517" x2="60.2568" y2="84.9517" stroke="#1727FF" stroke-width="2" stroke-linecap="round"/>
<line x1="30.5156" y1="21.3965" x2="46.7998" y2="21.3965" stroke="#1727FF" stroke-width="2" stroke-linecap="round"/>
<line x1="30.5156" y1="41.147" x2="46.7998" y2="41.147" stroke="#1727FF" stroke-width="2" stroke-linecap="round"/>
<line x1="30.5156" y1="59.8408" x2="46.7998" y2="59.8408" stroke="#1727FF" stroke-width="2" stroke-linecap="round"/>
<line x1="30.5156" y1="79.9517" x2="46.7998" y2="79.9517" stroke="#1727FF" stroke-width="2" stroke-linecap="round"/>
<path d="M103.493 63.8916V78.3369C103.346 81.4525 102.279 86.4353 99.5498 91.1689C96.851 95.8493 92.5424 100.258 85.9053 102.417C80.5435 101.04 69.6913 94.421 68.4971 78.3223V63.8906L85.9316 57.2607L103.493 63.8916Z" stroke="#1727FF" stroke-width="1.5"/>
<path d="M100.11 66.5903V78.6138C99.9899 81.2049 99.1299 85.3315 96.9365 89.2515C94.7597 93.1416 91.2822 96.806 85.9268 98.5933C81.613 97.4633 72.8437 91.9717 71.8828 78.5894V66.5894L85.9463 61.0786L100.11 66.5903Z" stroke="#1727FF"/>
<path d="M77.8975 79.29L83.2978 84.6904L94.0986 73.1182" stroke="#1727FF" stroke-width="2" stroke-linecap="round" stroke-linejoin="round"/>
<path d="M14.9375 24.0911L17.1927 26.5074L23.2066 20.064" stroke="#1727FF" stroke-width="1.5" stroke-linecap="round" stroke-linejoin="round"/>
<path d="M23.2064 24.8966V29.7291C23.2064 30.1563 23.048 30.5661 22.7661 30.8682C22.4841 31.1703 22.1017 31.34 21.703 31.34H12.6822C12.2834 31.34 11.901 31.1703 11.6191 30.8682C11.3371 30.5661 11.1787 30.1563 11.1787 29.7291V20.064C11.1787 19.6368 11.3371 19.227 11.6191 18.9249C11.901 18.6228 12.2834 18.4531 12.6822 18.4531H19.4478" stroke="#1727FF" stroke-width="1.5" stroke-linecap="round" stroke-linejoin="round"/>
<path d="M14.9375 43.3133L17.1927 45.7296L23.2066 39.2861" stroke="#1727FF" stroke-width="1.5" stroke-linecap="round" stroke-linejoin="round"/>
<path d="M23.2064 44.1187V48.9513C23.2064 49.3785 23.048 49.7882 22.7661 50.0903C22.4841 50.3924 22.1017 50.5621 21.703 50.5621H12.6822C12.2834 50.5621 11.901 50.3924 11.6191 50.0903C11.3371 49.7882 11.1787 49.3785 11.1787 48.9513V39.2861C11.1787 38.8589 11.3371 38.4492 11.6191 38.1471C11.901 37.845 12.2834 37.6753 12.6822 37.6753H19.4478" stroke="#1727FF" stroke-width="1.5" stroke-linecap="round" stroke-linejoin="round"/>
<path d="M14.9375 62.5354L17.1927 64.9517L23.2066 58.5083" stroke="#1727FF" stroke-width="1.5" stroke-linecap="round" stroke-linejoin="round"/>
<path d="M23.2064 63.3409V68.1735C23.2064 68.6007 23.048 69.0104 22.7661 69.3125C22.4841 69.6146 22.1017 69.7843 21.703 69.7843H12.6822C12.2834 69.7843 11.901 69.6146 11.6191 69.3125C11.3371 69.0104 11.1787 68.6007 11.1787 68.1735V58.5083C11.1787 58.0811 11.3371 57.6714 11.6191 57.3693C11.901 57.0672 12.2834 56.8975 12.6822 56.8975H19.4478" stroke="#1727FF" stroke-width="1.5" stroke-linecap="round" stroke-linejoin="round"/>
<path d="M14.9375 81.7571L17.1927 84.1734L23.2066 77.73" stroke="#1727FF" stroke-width="1.5" stroke-linecap="round" stroke-linejoin="round"/>
<path d="M23.2064 82.5626V87.3951C23.2064 87.8224 23.048 88.2321 22.7661 88.5342C22.4841 88.8363 22.1017 89.006 21.703 89.006H12.6822C12.2834 89.006 11.901 88.8363 11.6191 88.5342C11.3371 88.2321 11.1787 87.8224 11.1787 87.3951V77.73C11.1787 77.3028 11.3371 76.893 11.6191 76.5909C11.901 76.2889 12.2834 76.1191 12.6822 76.1191H19.4478" stroke="#1727FF" stroke-width="1.5" stroke-linecap="round" stroke-linejoin="round"/>
</svg>
