<svg width="104" height="108" viewBox="0 0 104 108" fill="none" xmlns="http://www.w3.org/2000/svg">
<path d="M72.4701 28.9519C72.4701 31.5698 71.4302 34.0805 69.5791 35.9316C67.7279 37.7827 65.2172 38.8227 62.5993 38.8227C59.9814 38.8227 57.4707 37.7827 55.6196 35.9316C53.7685 34.0805 52.7285 31.5698 52.7285 28.9519C52.7285 26.334 53.7685 23.8233 55.6196 21.9721C57.4707 20.121 59.9814 19.0811 62.5993 19.0811C65.2172 19.0811 67.7279 20.121 69.5791 21.9721C71.4302 23.8233 72.4701 26.334 72.4701 28.9519Z" stroke="#1727FF" stroke-width="1.54876"/>
<path d="M69.3034 28.952C69.3034 30.7304 68.5969 32.4359 67.3394 33.6934C66.0819 34.9509 64.3764 35.6574 62.598 35.6574C60.8196 35.6574 59.1141 34.9509 57.8565 33.6934C56.599 32.4359 55.8926 30.7304 55.8926 28.952C55.8926 27.1736 56.599 25.4681 57.8565 24.2106C59.1141 22.953 60.8196 22.2466 62.598 22.2466C64.3764 22.2466 66.0819 22.953 67.3394 24.2106C68.5969 25.4681 69.3034 27.1736 69.3034 28.952Z" fill="#1727FF" stroke="#1727FF" stroke-width="1.0521"/>
<path d="M67.5158 47.05C64.3997 47.8925 61.1185 47.914 57.9916 47.1125C58.1543 46.008 57.9837 44.8799 57.5016 43.8729C57.0196 42.8658 56.248 42.0254 55.2857 41.4593C54.3233 40.8932 53.214 40.6271 52.0995 40.6951C50.9851 40.7631 49.9163 41.162 49.0299 41.8409C48.1617 40.9203 47.3892 39.9139 46.7243 38.8373C45.6957 37.1756 44.958 35.4153 44.4997 33.6161L44.5665 33.5748C45.3774 33.0732 46.0472 32.3732 46.5124 31.5408C46.9777 30.7085 47.2231 29.7713 47.2256 28.8178C47.228 27.8643 46.9874 26.9258 46.5264 26.0911C46.0654 25.2564 45.3993 24.553 44.591 24.0472C45.3818 21.158 46.855 18.5011 48.8867 16.2999C49.7716 16.837 50.7878 17.1187 51.8228 17.114C52.8579 17.1094 53.8715 16.8184 54.7515 16.2734C55.6317 15.7289 56.3442 14.9514 56.81 14.0271C57.2758 13.1027 57.4768 12.0675 57.3908 11.036C60.267 10.1992 63.3022 10.0656 66.2408 10.6463C66.3335 11.6021 66.67 12.5181 67.218 13.3066C67.766 14.0951 68.5073 14.7298 69.3708 15.1498C70.2343 15.5699 71.1912 15.7613 72.1499 15.7056C73.1085 15.65 74.0369 15.3493 74.846 14.8322C76.2857 16.0764 77.527 17.5331 78.5271 19.1518C79.2063 20.249 79.7584 21.3897 80.1877 22.5558C79.1847 23.0464 78.351 23.8251 77.7931 24.7923C77.2353 25.7594 76.9787 26.871 77.0562 27.9848C77.1336 29.0986 77.5417 30.164 78.2281 31.0446C78.9145 31.9252 79.848 32.5809 80.9092 32.928C80.2318 36.0839 78.749 39.0108 76.6051 41.4239C75.7004 40.6524 74.5742 40.1882 73.3887 40.098C72.2032 40.0079 71.0197 40.2965 70.0087 40.9222C68.9978 41.548 68.2117 42.4785 67.7636 43.5798C67.3156 44.6811 67.2288 45.8962 67.5158 47.05Z" stroke="#1727FF" stroke-width="1.54876" stroke-linejoin="round"/>
<path d="M92.788 60.207C92.788 62.1865 92.0016 64.085 90.6019 65.4847C89.2022 66.8845 87.3037 67.6708 85.3242 67.6708C83.3446 67.6708 81.4462 66.8845 80.0465 65.4847C78.6467 64.085 77.8604 62.1865 77.8604 60.207C77.8604 58.2275 78.6467 56.329 80.0465 54.9293C81.4462 53.5295 83.3446 52.7432 85.3242 52.7432C87.3037 52.7432 89.2022 53.5295 90.6019 54.9293C92.0016 56.329 92.788 58.2275 92.788 60.207Z" stroke="#1727FF" stroke-width="1.54876"/>
<path d="M90.3935 60.2075C90.3935 61.5522 89.8593 62.8419 88.9085 63.7928C87.9576 64.7436 86.668 65.2778 85.3232 65.2778C83.9785 65.2778 82.6889 64.7436 81.738 63.7928C80.7871 62.8419 80.2529 61.5522 80.2529 60.2075C80.2529 58.8628 80.7871 57.5731 81.738 56.6223C82.6889 55.6714 83.9785 55.1372 85.3232 55.1372C86.668 55.1372 87.9576 55.6714 88.9085 56.6223C89.8593 57.5731 90.3935 58.8628 90.3935 60.2075Z" fill="#1727FF" stroke="#1727FF" stroke-width="1.0521"/>
<path d="M89.0416 73.892C86.6854 74.529 84.2043 74.5453 81.8399 73.9393C81.9629 73.1041 81.8339 72.2511 81.4694 71.4896C81.1049 70.7281 80.5215 70.0927 79.7938 69.6646C79.0661 69.2366 78.2273 69.0354 77.3846 69.0867C76.5419 69.1381 75.7337 69.4398 75.0634 69.9531C74.407 69.257 73.8229 68.4961 73.3201 67.682C72.5423 66.4255 71.9845 65.0944 71.638 63.734L71.6885 63.7027C72.3017 63.3234 72.8081 62.7941 73.1599 62.1647C73.5117 61.5354 73.6973 60.8267 73.6991 60.1057C73.701 59.3847 73.519 58.6751 73.1704 58.0439C72.8219 57.4128 72.3182 56.8809 71.707 56.4984C72.3049 54.3138 73.4189 52.3047 74.9552 50.6403C75.6243 51.0464 76.3927 51.2594 77.1754 51.2559C77.958 51.2524 78.7245 51.0324 79.3899 50.6203C80.0555 50.2085 80.5942 49.6206 80.9464 48.9217C81.2986 48.2227 81.4506 47.44 81.3856 46.66C83.5604 46.0273 85.8554 45.9262 88.0775 46.3653C88.1476 47.088 88.402 47.7807 88.8164 48.3769C89.2308 48.9732 89.7913 49.453 90.4443 49.7707C91.0972 50.0883 91.8208 50.233 92.5457 50.1909C93.2706 50.1489 93.9725 49.9215 94.5844 49.5305C95.673 50.4713 96.6116 51.5727 97.3678 52.7968C97.8814 53.6264 98.2988 54.4889 98.6234 55.3707C97.8651 55.7417 97.2346 56.3305 96.8128 57.0618C96.391 57.7931 96.197 58.6336 96.2555 59.4759C96.3141 60.3181 96.6227 61.1236 97.1417 61.7895C97.6607 62.4554 98.3666 62.9512 99.1691 63.2136C98.6568 65.6 97.5356 67.8132 95.9145 69.6378C95.2304 69.0545 94.3788 68.7034 93.4824 68.6353C92.586 68.5671 91.691 68.7853 90.9266 69.2585C90.1622 69.7316 89.5678 70.4353 89.229 71.268C88.8902 72.1008 88.8246 73.0196 89.0416 73.892Z" stroke="#1727FF" stroke-width="1.54876" stroke-linejoin="round"/>
<path d="M44.0777 81.4112C42.9228 85.1487 40.3304 88.2743 36.8709 90.1004C33.4114 91.9265 29.3682 92.3036 25.6307 91.1486C21.8932 89.9937 18.7676 87.4013 16.9415 83.9418C15.1154 80.4823 14.7383 76.4391 15.8933 72.7016C17.0482 68.9641 19.6406 65.8385 23.1001 64.0124C26.5596 62.1863 30.6028 61.8092 34.3403 62.9642C38.0778 64.1191 41.2034 66.7115 43.0295 70.171C44.8556 73.6305 45.2327 77.6737 44.0777 81.4112Z" stroke="#1727FF" stroke-width="1.54876"/>
<path d="M39.559 80.0146C38.7744 82.5535 37.0134 84.6768 34.6633 85.9173C32.3132 87.1578 29.5666 87.4139 27.0276 86.6294C24.4887 85.8448 22.3654 84.0837 21.1249 81.7337C19.8844 79.3836 19.6282 76.6369 20.4128 74.098C21.1974 71.5591 22.9584 69.4358 25.3085 68.1953C27.6586 66.9547 30.4052 66.6986 32.9442 67.4832C35.4831 68.2678 37.6064 70.0288 38.8469 72.3789C40.0874 74.729 40.3436 77.4756 39.559 80.0146Z" fill="#1727FF" stroke="#1727FF" stroke-width="1.0521"/>
<path d="M29.0214 105.064C24.2009 104.892 19.507 103.475 15.3963 100.951C16.1159 99.4462 16.37 97.7605 16.1261 96.1101C15.8822 94.4596 15.1515 92.9195 14.0273 91.6867C12.9031 90.454 11.4367 89.5847 9.81566 89.19C8.19463 88.7954 6.49273 88.8934 4.92772 89.4716C4.0944 87.7742 3.4355 85.9967 2.96115 84.1663C2.22581 81.3402 1.94921 78.5015 2.08874 75.7307L2.20233 75.7012C3.58138 75.3428 4.84634 74.6389 5.87777 73.6559C6.9092 72.6728 7.67306 71.4432 8.09724 70.0829C8.52141 68.7227 8.5919 67.2768 8.30203 65.8817C8.01217 64.4867 7.37153 63.1885 6.4406 62.1098C8.84423 58.3339 12.1197 55.1906 15.9914 52.9444C17.0178 54.1015 18.3443 54.9521 19.8241 55.4021C21.3039 55.852 22.8793 55.8839 24.3761 55.494C25.873 55.1049 27.2332 54.3093 28.306 53.1951C29.3788 52.081 30.1225 50.6917 30.4548 49.1812C34.9302 49.2554 39.3223 50.4036 43.2615 52.5292C42.9722 53.9346 43.0485 55.3908 43.483 56.7583C43.9175 58.1259 44.6958 59.359 45.7433 60.3396C46.7908 61.3203 48.0725 62.0156 49.4657 62.3592C50.8588 62.7027 52.3169 62.6829 53.7002 62.3017C55.2066 64.7131 56.3362 67.3404 57.0499 70.0927C57.5354 71.9588 57.8204 73.8308 57.9188 75.685C56.2705 75.9429 54.7366 76.6869 53.5135 77.8215C52.2904 78.9562 51.4336 80.43 51.0529 82.0543C50.6721 83.6786 50.7847 85.3796 51.3761 86.9397C51.9676 88.4997 53.0111 89.8477 54.373 90.8113C52.0135 95.0181 48.6053 98.5425 44.4799 101.042C43.5287 99.5413 42.1256 98.3816 40.4729 97.7299C38.8201 97.0782 37.0031 96.968 35.2838 97.4154C33.5645 97.8628 32.0316 98.8445 30.9061 100.219C29.7806 101.594 29.1207 103.29 29.0214 105.064Z" stroke="#1727FF" stroke-width="1.54876" stroke-linejoin="round"/>
<path d="M81.7154 4.91324C81.2958 5.17956 81.1714 5.73568 81.4377 6.15537L85.7776 12.9946C86.0439 13.4143 86.6 13.5387 87.0197 13.2724C87.4394 13.006 87.5638 12.4499 87.2974 12.0302L83.4398 5.95087L89.5191 2.09322C89.9388 1.8269 90.0632 1.27079 89.7968 0.851094C89.5305 0.431402 88.9744 0.307066 88.5547 0.573381L81.7154 4.91324ZM90.618 34.7598C90.276 35.1205 90.2912 35.6902 90.6519 36.0322C91.0126 36.3741 91.5822 36.359 91.9242 35.9983L91.2711 35.379L90.618 34.7598ZM82.1977 5.67316L82.0013 6.55148C86.4832 7.55353 90.5425 10.3604 93.0087 14.6551L93.7892 14.207L94.5696 13.7588C91.8415 9.00798 87.348 5.90245 82.394 4.79485L82.1977 5.67316ZM93.7892 14.207L93.0087 14.6551C96.828 21.3062 95.6388 29.4642 90.618 34.7598L91.2711 35.379L91.9242 35.9983C97.4771 30.1414 98.7959 21.1185 94.5696 13.7588L93.7892 14.207Z" fill="#1727FF"/>
<path d="M41.1009 40.0583C41.2417 40.535 40.9695 41.0356 40.4928 41.1764L32.7247 43.4715C32.248 43.6123 31.7474 43.34 31.6066 42.8633C31.4658 42.3867 31.738 41.8861 32.2147 41.7452L39.1196 39.7052L37.0796 32.8002C36.9388 32.3235 37.211 31.8229 37.6877 31.6821C38.1644 31.5413 38.665 31.8135 38.8058 32.2902L41.1009 40.0583ZM3.77604 50.0583C3.5018 50.4728 2.94342 50.5866 2.52886 50.3123C2.1143 50.0381 2.00056 49.4797 2.27479 49.0651L3.02542 49.5617L3.77604 50.0583ZM40.2378 40.3133L39.8078 41.1039C33.2716 37.5491 25.3252 36.646 17.7373 39.2574L17.4444 38.4064L17.1515 37.5554C25.2367 34.7729 33.7066 35.7367 40.6678 39.5227L40.2378 40.3133ZM17.4444 38.4064L17.7373 39.2574C11.7888 41.3045 6.99737 45.1887 3.77604 50.0583L3.02542 49.5617L2.27479 49.0651C5.70721 43.8765 10.8152 39.736 17.1515 37.5554L17.4444 38.4064Z" fill="#1727FF"/>
</svg>
