<svg width="104" height="104" viewBox="0 0 104 104" fill="none" xmlns="http://www.w3.org/2000/svg">
<circle cx="66.9705" cy="59.5471" r="35.4792" stroke="#1727FF" stroke-width="1.5"/>
<circle cx="66.9709" cy="59.5471" r="31.7229" stroke="#1727FF" stroke-width="1.5"/>
<rect x="53.584" y="8.57373" width="26.7715" height="7.97217" rx="3.98608" stroke="#1727FF" stroke-width="1.5"/>
<rect x="62.0957" y="16.5737" width="9.74805" height="7.45752" rx="1.25" stroke="#1727FF" stroke-width="1.5"/>
<rect x="89.8863" y="23.1046" width="9.74805" height="7.45752" rx="1.25" transform="rotate(37.0337 89.8863 23.1046)" stroke="#1727FF" stroke-width="1.5"/>
<rect x="-0.146998" y="1.05042" width="9.74805" height="7.45752" rx="1.25" transform="matrix(-0.798282 0.602284 0.602284 0.798282 43.4262 22.3546)" stroke="#1727FF" stroke-width="1.5"/>
<path d="M60.8877 61.8005H75.0544M60.8877 56.1338H69.3877" stroke="#1727FF" stroke-width="1.8" stroke-linecap="round" stroke-linejoin="round"/>
<path d="M55.2207 73.5445V51.8836C55.2207 51.1322 55.5192 50.4115 56.0506 49.8802C56.5819 49.3488 57.3026 49.0503 58.054 49.0503H77.8874C78.6388 49.0503 79.3595 49.3488 79.8908 49.8802C80.4222 50.4115 80.7207 51.1322 80.7207 51.8836V66.0503C80.7207 66.8017 80.4222 67.5224 79.8908 68.0538C79.3595 68.5851 78.6388 68.8836 77.8874 68.8836H62.2488C61.8241 68.8837 61.4049 68.9792 61.0221 69.1631C60.6393 69.347 60.3028 69.6146 60.0374 69.9461L56.7351 74.0743C56.6252 74.212 56.4752 74.3122 56.3059 74.361C56.1366 74.4097 55.9563 74.4047 55.79 74.3465C55.6237 74.2883 55.4796 74.1798 55.3776 74.0362C55.2756 73.8925 55.2208 73.7207 55.2207 73.5445Z" stroke="#1727FF" stroke-width="1.8"/>
<line x1="18.9785" y1="45.7295" x2="33.498" y2="45.7295" stroke="#1727FF" stroke-width="2" stroke-linecap="round"/>
<line x1="8.10937" y1="52.7295" x2="31.0504" y2="52.7295" stroke="#1727FF" stroke-width="2" stroke-linecap="round"/>
<line x1="1" y1="59.7295" x2="30.7412" y2="59.7295" stroke="#1727FF" stroke-width="2" stroke-linecap="round"/>
<line x1="7.93359" y1="66.7295" x2="31.4717" y2="66.7295" stroke="#1727FF" stroke-width="2" stroke-linecap="round"/>
<line x1="17.9785" y1="73.7295" x2="33.873" y2="73.7295" stroke="#1727FF" stroke-width="2" stroke-linecap="round"/>
</svg>
