<svg width="104" height="104" viewBox="0 0 104 104" fill="none" xmlns="http://www.w3.org/2000/svg">
<rect x="21.0293" y="21.4292" width="61.1416" height="61.1416" rx="9.25" stroke="#1727FF" stroke-width="1.5"/>
<rect x="23.748" y="24.1484" width="55.7031" height="55.7031" rx="5.25" stroke="#1727FF" stroke-width="1.5"/>
<path d="M69.4912 0.399902C72.7389 0.400113 75.3721 3.03298 75.3721 6.28076C75.372 9.52845 72.7389 12.1614 69.4912 12.1616C66.5421 12.1616 64.1002 9.99053 63.6758 7.15967H57.1533V18.7017C57.1533 19.033 56.8851 19.3022 56.5537 19.3022C56.2225 19.302 55.9541 19.0329 55.9541 18.7017V6.56006C55.9542 6.2289 56.2226 5.96066 56.5537 5.96045H63.6182C63.7844 2.86139 66.3507 0.399911 69.4912 0.399902ZM69.4912 1.6001C66.9066 1.60011 64.8115 3.69444 64.8105 6.27881C64.8556 6.36293 64.8828 6.45793 64.8828 6.56006C64.8828 6.64078 64.8658 6.71733 64.8369 6.7876C65.0896 9.13427 67.0774 10.9614 69.4912 10.9614C72.0761 10.9612 74.1718 8.86571 74.1719 6.28076C74.1719 3.69572 72.0762 1.60031 69.4912 1.6001Z" fill="#1727FF"/>
<path d="M69.1377 103.6C72.3854 103.6 75.0185 100.967 75.0186 97.7192C75.0183 94.4717 72.3853 91.8386 69.1377 91.8384C66.189 91.8384 63.7471 94.0091 63.3223 96.8394H56.7998V85.2974C56.7996 84.9662 56.5314 84.6968 56.2002 84.6968C55.8692 84.697 55.6008 84.9663 55.6006 85.2974V97.439C55.6006 97.7702 55.869 98.0384 56.2002 98.0386H63.2646C63.4303 101.138 65.9968 103.6 69.1377 103.6ZM69.1377 102.4C66.553 102.4 64.4578 100.306 64.457 97.7212C64.5022 97.637 64.5293 97.5413 64.5293 97.439C64.5292 97.3585 64.5122 97.2825 64.4834 97.2124C64.7362 94.8658 66.7239 93.0386 69.1377 93.0386C71.7225 93.0388 73.8181 95.1344 73.8184 97.7192C73.8183 100.304 71.7227 102.4 69.1377 102.4Z" fill="#1727FF"/>
<path d="M34.416 0.399902C31.1682 0.400008 28.5352 3.03292 28.5352 6.28076C28.5353 9.52851 31.1683 12.1615 34.416 12.1616C37.3651 12.1616 39.8071 9.99055 40.2314 7.15967H46.7549V18.7017C46.7549 19.033 47.0231 19.3022 47.3545 19.3022C47.6857 19.302 47.9541 19.0329 47.9541 18.7017V6.56006C47.954 6.2289 47.6856 5.96066 47.3545 5.96045H40.2881C40.1218 2.86141 37.5565 0.399911 34.416 0.399902ZM34.416 1.6001C37.0012 1.60011 39.0976 3.6956 39.0977 6.28076C39.0532 6.36452 39.0254 6.45855 39.0254 6.56006C39.0254 6.63924 39.0415 6.71452 39.0693 6.78369C38.8183 9.13218 36.8312 10.9614 34.416 10.9614C31.831 10.9613 29.7355 8.86577 29.7354 6.28076C29.7354 3.69566 31.8309 1.6002 34.416 1.6001Z" fill="#1727FF"/>
<path d="M34.0625 103.6C30.8147 103.6 28.1817 100.967 28.1816 97.7192C28.1819 94.4716 30.8148 91.8385 34.0625 91.8384C37.0112 91.8384 39.4531 94.0091 39.8779 96.8394H46.4014V85.2974C46.4016 84.9662 46.6698 84.6968 47.001 84.6968C47.332 84.697 47.6003 84.9663 47.6006 85.2974V97.439C47.6006 97.7702 47.3322 98.0384 47.001 98.0386H39.9346C39.7689 101.138 37.2034 103.6 34.0625 103.6ZM34.0625 102.4C36.6477 102.4 38.7441 100.304 38.7441 97.7192C38.6995 97.6354 38.6719 97.5406 38.6719 97.439C38.6719 97.3601 38.6881 97.2853 38.7158 97.2163C38.4647 94.8679 36.4776 93.0386 34.0625 93.0386C31.4776 93.0387 29.3821 95.1343 29.3818 97.7192C29.3818 100.304 31.4774 102.4 34.0625 102.4Z" fill="#1727FF"/>
<path d="M0.831055 33.3149C0.831055 30.0672 3.46418 27.4343 6.71191 27.4341C9.95983 27.4341 12.5928 30.067 12.5928 33.3149C12.5926 36.2634 10.4229 38.7045 7.59277 39.1294L7.59277 45.6519L17.5352 45.6519C17.8664 45.6519 18.1346 45.9203 18.1348 46.2515C18.1348 46.5828 17.8665 46.8511 17.5352 46.8511L6.99316 46.8511C6.66179 46.8511 6.39355 46.5828 6.39355 46.2515L6.39355 39.187C3.294 39.0215 0.831281 36.4557 0.831055 33.3149ZM2.03125 33.3149C2.03148 35.8998 4.12707 37.9964 6.71191 37.9966C6.79617 37.9514 6.89083 37.9224 6.99316 37.9224C7.07288 37.9224 7.14822 37.94 7.21777 37.9683C9.56506 37.7162 11.3924 35.7291 11.3926 33.3149C11.3926 30.7298 9.29709 28.6343 6.71191 28.6343C4.12692 28.6345 2.03125 30.7299 2.03125 33.3149Z" fill="#1727FF"/>
<path d="M102.849 31.5396C102.849 28.2916 100.216 25.6587 96.9678 25.6587C93.72 25.6589 91.0869 28.2918 91.0869 31.5396C91.0871 34.4881 93.2577 36.9292 96.0879 37.354L96.0879 43.8765L86.1455 43.8765C85.8143 43.8765 85.5461 44.1449 85.5459 44.4761C85.5459 44.8074 85.8141 45.0757 86.1455 45.0757L96.6875 45.0757C97.0188 45.0756 97.2871 44.8074 97.2871 44.4761L97.2871 37.4116C100.387 37.246 102.848 34.6803 102.849 31.5396ZM101.648 31.5396C101.648 34.1243 99.5535 36.2199 96.9687 36.2202C96.8846 36.1752 96.7897 36.147 96.6875 36.147C96.6078 36.147 96.5324 36.1647 96.4629 36.1929C94.1155 35.9409 92.2873 33.9538 92.2871 31.5396C92.2871 28.9545 94.3828 26.8591 96.9678 26.8589C99.5529 26.8589 101.648 28.9544 101.648 31.5396Z" fill="#1727FF"/>
<path d="M0.831055 67.8896C0.831055 71.1374 3.46418 73.7703 6.71191 73.7705C9.95983 73.7705 12.5928 71.1376 12.5928 67.8896C12.5927 64.941 10.423 62.4991 7.59277 62.0742L7.59277 55.5518L17.5352 55.5518C17.8665 55.5518 18.1348 55.2835 18.1348 54.9521C18.1346 54.6209 17.8664 54.3525 17.5352 54.3525L6.99316 54.3525C6.66188 54.3525 6.3937 54.6209 6.39355 54.9521L6.39355 62.0176C3.2939 62.1832 0.831102 64.7487 0.831055 67.8896ZM2.03125 67.8896C2.0313 65.3046 4.12696 63.2092 6.71191 63.209L6.71289 63.209C6.79683 63.2537 6.89136 63.2812 6.99316 63.2812C7.07283 63.2812 7.14825 63.2645 7.21777 63.2363C9.56515 63.4884 11.3925 65.4753 11.3926 67.8896C11.3926 70.4748 9.29709 72.5703 6.71191 72.5703C4.12692 72.5701 2.03125 70.4747 2.03125 67.8896Z" fill="#1727FF"/>
<path d="M102.849 67.8896C102.849 71.1376 100.216 73.7705 96.9678 73.7705C93.72 73.7703 91.0869 71.1374 91.0869 67.8896C91.087 64.9409 93.2576 62.499 96.0879 62.0742L96.0879 55.5518L86.1455 55.5518C85.8141 55.5518 85.5459 55.2835 85.5459 54.9521C85.546 54.6209 85.8142 54.3525 86.1455 54.3525L96.6875 54.3525C97.0187 54.3526 97.287 54.621 97.2871 54.9521L97.2871 62.0176C100.387 62.1832 102.849 64.7488 102.849 67.8896ZM101.648 67.8896C101.648 65.3045 99.5529 63.208 96.9678 63.208C96.8838 63.2529 96.7895 63.2812 96.6875 63.2812C96.6076 63.2812 96.5316 63.2647 96.4619 63.2363C94.1149 63.4887 92.2872 65.4756 92.2871 67.8896C92.2871 70.4747 94.3828 72.5701 96.9678 72.5703C99.5529 72.5703 101.648 70.4748 101.648 67.8896Z" fill="#1727FF"/>
<rect x="37.9316" y="44.3252" width="27.7314" height="24.4824" rx="3.25" stroke="#1727FF" stroke-width="1.5"/>
<path d="M55.2422 35.7144C55.1499 33.8916 53.6425 32.4421 51.7969 32.4419L51.6201 32.4458C49.7973 32.538 48.348 34.0455 48.3477 35.8911L48.3516 36.0688C48.4308 37.6325 49.5511 38.9204 51.0332 39.2554L51.0332 43.4819C51.0335 43.813 51.3017 44.0814 51.6328 44.0815C51.964 44.0815 52.2322 43.8131 52.2324 43.4819L52.2324 39.313C53.9319 39.0986 55.2471 37.6487 55.2471 35.8911L55.2422 35.7144ZM54.0469 35.8911C54.0469 37.1336 53.0393 38.1409 51.7969 38.1411C50.5545 38.1409 49.5469 37.1336 49.5469 35.8911C49.5472 34.6489 50.5547 33.6413 51.7969 33.6411C53.0391 33.6413 54.0465 34.649 54.0469 35.8911ZM53.3359 35.8921C53.3357 35.0426 52.6464 34.354 51.7969 34.354C50.9475 34.3543 50.2591 35.0427 50.2588 35.8921C50.2588 36.7417 50.9474 37.4309 51.7969 37.4312C52.6466 37.4312 53.3359 36.7418 53.3359 35.8921Z" fill="#1727FF"/>
<rect x="67.6631" y="48.3345" width="2.87402" height="9.15674" rx="1.43701" fill="#1727FF"/>
<rect x="32.6631" y="48.3345" width="2.87402" height="9.15674" rx="1.43701" fill="#1727FF"/>
<rect x="46.1924" y="49.3403" width="2.87402" height="4.57861" rx="1.43701" fill="#1727FF"/>
<rect x="54.5293" y="49.3403" width="2.87402" height="4.57861" rx="1.43701" fill="#1727FF"/>
<rect x="43.0918" y="58.478" width="17.7236" height="4.6499" rx="1.5" stroke="#1727FF"/>
</svg>
