<svg width="104" height="104" viewBox="0 0 104 104" fill="none" xmlns="http://www.w3.org/2000/svg">
<path d="M84.0853 14.0795L99.1449 15.2225L100.288 30.2821C100.669 35.3126 99.8341 40.5479 97.8496 45.565C95.865 50.5821 76.8829 71.1442 72.9597 75.0675L46.3218 80.3363L34.0311 68.0456L39.3004 41.4081C43.2237 37.4843 63.7839 18.5031 68.8013 16.5183C73.8187 14.5334 79.0544 13.698 84.0853 14.0795Z" stroke="#1727FF" stroke-width="2" stroke-linejoin="round"/>
<path d="M60.0351 22.5713L37.3136 21.2928L23.0182 35.5882L39.1005 40.949L60.0351 22.5713ZM91.93 54.4661L93.0775 77.0567L78.7821 91.3521L73.4213 75.2698L91.93 54.4661Z" stroke="#1727FF" stroke-width="2" stroke-linecap="round" stroke-linejoin="round"/>
<path d="M30.874 72.0356L25.5133 77.3964M36.604 77.7657L12.2964 102.073M42.3341 83.4957L36.9733 88.8565M39.6116 80.7732L26.564 93.8208M33.8597 75.0214L20.8121 88.069" stroke="#1727FF" stroke-width="1.2" stroke-linecap="round" stroke-linejoin="round"/>
<circle cx="73.9413" cy="38.3432" r="11.1321" stroke="#1727FF" stroke-width="1.2"/>
<circle cx="73.9403" cy="38.3432" r="8.69815" fill="#1727FF"/>
<rect x="32.2793" y="62.6519" width="27.4897" height="4.44595" rx="2.22298" transform="rotate(45 32.2793 62.6519)" fill="#1727FF"/>
</svg>
