<svg width="104" height="104" viewBox="0 0 104 104" fill="none" xmlns="http://www.w3.org/2000/svg">
<path d="M42.8496 82.54H55.1494C60.258 82.54 64.3994 86.6814 64.3994 91.79V93.1104H33.5996V91.79C33.5996 86.6814 37.741 82.54 42.8496 82.54Z" stroke="#1727FF" stroke-width="1.5"/>
<path d="M57.3037 68.6382H40.6973V82.542H57.3037V75.5901" stroke="#1727FF" stroke-width="1.5"/>
<path d="M64 72.9146V56.9771C64 56.2311 64.2963 55.5158 64.8238 54.9883C65.3512 54.4609 66.0666 54.1646 66.8125 54.1646C67.5584 54.1646 68.2738 54.4609 68.8012 54.9883C69.3287 55.5158 69.625 56.2311 69.625 56.9771V71.0396M69.625 70.1021V66.3521C69.625 65.6061 69.9213 64.8908 70.4488 64.3633C70.9762 63.8359 71.6916 63.5396 72.4375 63.5396C73.1834 63.5396 73.8988 63.8359 74.4262 64.3633C74.9537 64.8908 75.25 65.6061 75.25 66.3521V71.0396M75.25 68.2271C75.25 67.4811 75.5463 66.7658 76.0738 66.2383C76.6012 65.7109 77.3166 65.4146 78.0625 65.4146C78.8084 65.4146 79.5238 65.7109 80.0512 66.2383C80.5787 66.7658 80.875 67.4811 80.875 68.2271V71.0396" stroke="#1727FF" stroke-width="2" stroke-linecap="round" stroke-linejoin="round"/>
<path d="M80.875 70.1021C80.875 69.3561 81.1713 68.6408 81.6988 68.1133C82.2262 67.5859 82.9416 67.2896 83.6875 67.2896C84.4334 67.2896 85.1488 67.5859 85.6762 68.1133C86.2037 68.6408 86.5 69.3561 86.5 70.1021V78.5396C86.5 81.5232 85.3147 84.3847 83.205 86.4945C81.0952 88.6043 78.2337 89.7896 75.25 89.7896H71.5H71.89C70.0269 89.7899 68.1928 89.3275 66.5526 88.4438C64.9123 87.5602 63.5172 86.2831 62.4925 84.7271L62.125 84.1646C61.54 83.2671 59.4863 79.6871 55.9638 73.4246C55.6046 72.7862 55.5087 72.0329 55.6963 71.3248C55.884 70.6168 56.3405 70.0099 56.9688 69.6333C57.6382 69.2328 58.4221 69.0669 59.1964 69.162C59.9707 69.2571 60.6911 69.6077 61.2438 70.1583L64 72.9146M58.375 54.1646L56.5 52.2896M56.5 61.6646H54.625M75.25 54.1646L77.125 52.2896M77.125 59.7896H79" stroke="#1727FF" stroke-width="2" stroke-linecap="round" stroke-linejoin="round"/>
<path d="M63.6532 68.6382L10.1641 68.6382C6.85036 68.6382 4.16406 65.9519 4.16406 62.6382V15.3398C4.16406 12.0261 6.85035 9.33984 10.1641 9.33984H93.0351C96.3488 9.33984 99.0351 12.0261 99.0351 15.3398V62.6382C99.0351 65.9519 96.3488 68.6382 93.0351 68.6382L86.0617 68.6382" stroke="#1727FF" stroke-width="1.5"/>
<rect x="9.45801" y="58.6646" width="39.0422" height="4.375" rx="1.5" fill="#1727FF" stroke="#1727FF"/>
<line x1="52.0996" y1="20.1641" x2="52.0996" y2="48.0396" stroke="#1727FF" stroke-linecap="round"/>
<line x1="12.3057" y1="25.9004" x2="42.5469" y2="25.9004" stroke="#1727FF" stroke-width="1.5" stroke-linecap="round"/>
<line x1="12.3057" y1="35.8521" x2="42.5469" y2="35.8521" stroke="#1727FF" stroke-width="1.5" stroke-linecap="round"/>
<line x1="12.3057" y1="45.8032" x2="42.5469" y2="45.8032" stroke="#1727FF" stroke-width="1.5" stroke-linecap="round"/>
<line x1="12.3057" y1="20.9004" x2="29.0898" y2="20.9004" stroke="#1727FF" stroke-width="1.5" stroke-linecap="round"/>
<line x1="12.3057" y1="30.8516" x2="29.0898" y2="30.8516" stroke="#1727FF" stroke-width="1.5" stroke-linecap="round"/>
<line x1="12.3057" y1="40.8027" x2="29.0898" y2="40.8027" stroke="#1727FF" stroke-width="1.5" stroke-linecap="round"/>
<line x1="60.6533" y1="25.9004" x2="90.8945" y2="25.9004" stroke="#1727FF" stroke-width="1.5" stroke-linecap="round"/>
<line x1="60.6533" y1="35.8521" x2="90.8945" y2="35.8521" stroke="#1727FF" stroke-width="1.5" stroke-linecap="round"/>
<line x1="60.6533" y1="45.8032" x2="90.8945" y2="45.8032" stroke="#1727FF" stroke-width="1.5" stroke-linecap="round"/>
<line x1="60.6533" y1="20.9004" x2="77.4375" y2="20.9004" stroke="#1727FF" stroke-width="1.5" stroke-linecap="round"/>
<line x1="60.6533" y1="30.8516" x2="77.4375" y2="30.8516" stroke="#1727FF" stroke-width="1.5" stroke-linecap="round"/>
<line x1="60.6533" y1="40.8027" x2="77.4375" y2="40.8027" stroke="#1727FF" stroke-width="1.5" stroke-linecap="round"/>
</svg>
