<svg width="118" height="105" viewBox="0 0 118 105" fill="none" xmlns="http://www.w3.org/2000/svg">
<path d="M83.8643 51.3307L81.2576 42.4542L74.1491 56.1288L67.7517 37.6562L62.0651 51.3307L59.2218 42.4542" stroke="#1727FF" stroke-width="1.2" stroke-linecap="round" stroke-linejoin="round"/>
<path d="M71.542 26.8135C61.0113 26.8135 52.4551 35.4597 52.4551 46.1494C52.4551 56.8392 61.0113 65.4854 71.542 65.4854C82.0726 65.4852 90.6279 56.8391 90.6279 46.1494C90.6279 35.4597 82.0726 26.8136 71.542 26.8135Z" stroke="#1727FF" stroke-width="1.8"/>
<path d="M71.542 23.2134C59.0478 23.2134 48.9006 33.4712 48.9004 46.1489C48.9004 58.8269 59.0477 69.0854 71.542 69.0854C84.0363 69.0854 94.1836 58.8269 94.1836 46.1489C94.1834 33.4712 84.0362 23.2134 71.542 23.2134Z" stroke="#1727FF" stroke-width="1.8"/>
<rect x="-1.26439" y="0.0349221" width="21.5594" height="5.24894" rx="2.62447" transform="matrix(-0.722083 -0.691806 -0.682797 0.730608 104.483 75.664)" stroke="#1727FF" stroke-width="1.8"/>
<path d="M99.126 70.4076V40.748V21.0884C99.126 15.5655 94.6488 11.0884 89.126 11.0884H13.29C7.76719 11.0884 3.29004 15.5655 3.29004 21.0884V65.2993C3.29004 70.8222 7.76718 75.2993 13.29 75.2993H96.2184" stroke="#1727FF" stroke-width="1.5"/>
<line x1="12.5557" y1="55.3667" x2="42.2969" y2="55.3667" stroke="#1727FF" stroke-width="2" stroke-linecap="round"/>
<line x1="12.5557" y1="50.3667" x2="28.8398" y2="50.3667" stroke="#1727FF" stroke-width="2" stroke-linecap="round"/>
<path d="M58.9139 65.6909H3.29004V65.6909C3.29004 70.9975 7.59186 75.2993 12.8984 75.2993H90.098M82.9472 65.6909H86.5342M93.5887 65.6909H99.126V70.4951" stroke="#1727FF" stroke-width="1.5"/>
<path d="M45.4502 88.417H57.75C62.8586 88.417 67 92.5584 67 97.667V98.9873H36.2002V97.667C36.2002 92.5584 40.3416 88.417 45.4502 88.417Z" stroke="#1727FF" stroke-width="1.5"/>
<rect x="0.75" y="-0.75" width="15.1064" height="13.0972" transform="matrix(1 0 0 -1 43.2969 87.6123)" stroke="#1727FF" stroke-width="1.5"/>
<path d="M39 32.7022C38.9986 30.0299 38.2241 27.4152 36.77 25.1732L35.326 26.6182C36.4213 28.4586 36.9997 30.5605 37 32.7022H39ZM37 22.1162L35.586 20.7022L27.019 29.2692C26.4094 28.9017 25.7118 28.7058 25 28.7022C24.2089 28.7022 23.4355 28.9368 22.7777 29.3763C22.1199 29.8158 21.6073 30.4406 21.3045 31.1715C21.0017 31.9024 20.9225 32.7066 21.0769 33.4825C21.2312 34.2585 21.6122 34.9712 22.1716 35.5306C22.731 36.09 23.4437 36.471 24.2197 36.6253C24.9956 36.7797 25.7998 36.7005 26.5308 36.3977C27.2617 36.095 27.8864 35.5823 28.3259 34.9245C28.7654 34.2667 29 33.4933 29 32.7022C28.9966 31.9901 28.8007 31.2921 28.433 30.6822L37 22.1162ZM25 34.7022C24.6045 34.7022 24.2178 34.5849 23.8889 34.3651C23.56 34.1454 23.3036 33.833 23.1523 33.4676C23.0009 33.1021 22.9613 32.7 23.0384 32.312C23.1156 31.924 23.3061 31.5677 23.5858 31.288C23.8655 31.0083 24.2219 30.8178 24.6098 30.7406C24.9978 30.6634 25.3999 30.7031 25.7654 30.8544C26.1308 31.0058 26.4432 31.2621 26.663 31.591C26.8827 31.9199 27 32.3066 27 32.7022C27 33.2326 26.7893 33.7413 26.4142 34.1164C26.0392 34.4915 25.5305 34.7022 25 34.7022ZM25 20.7022C27.1414 20.7027 29.2429 21.281 31.083 22.3762L32.537 20.9232C30.424 19.5644 27.9838 18.8002 25.4732 18.711C22.9626 18.6218 20.4743 19.2109 18.2702 20.4164C16.0661 21.6218 14.2277 23.3991 12.9483 25.5611C11.6689 27.7231 10.9959 30.19 11 32.7022H13C13.0037 29.5207 14.2692 26.4706 16.5188 24.221C18.7685 21.9714 21.8186 20.7059 25 20.7022Z" fill="#1727FF"/>
</svg>
