<svg width="104" height="104" viewBox="0 0 104 104" fill="none" xmlns="http://www.w3.org/2000/svg">
<path d="M95.9622 45.8666C95.4595 41.9765 94.4571 38.2431 93.0214 34.7327C91.5174 31.0555 89.538 27.6232 87.1596 24.5122M95.9563 57.4913C94.917 65.4691 91.7757 72.7864 87.1064 78.8694M79.0218 87.0013C76.5909 88.89 73.96 90.5333 71.1663 91.8943C66.8973 93.9739 62.248 95.3942 57.3509 96.0227M45.8503 96.0227C41.9289 95.5194 38.1665 94.5085 34.6309 93.0578C30.8415 91.5029 27.3127 89.443 24.1284 86.9616M16.1644 78.9598C13.7843 75.8754 11.7979 72.4715 10.2806 68.8236C8.79352 65.2485 7.75692 61.439 7.24164 57.4658M7.22363 45.9868C7.72446 42.0269 8.74297 38.2283 10.2092 34.6611C11.7255 30.972 13.7207 27.5303 16.1173 24.4134M24.191 16.3018C27.0724 14.0646 30.2346 12.172 33.6157 10.6856C37.4736 8.98968 41.6165 7.82267 45.9526 7.27637M57.2486 7.27637C61.0429 7.7544 64.6891 8.70768 68.1259 10.0747C72.0375 11.6306 75.6777 13.7224 78.9558 16.2596" stroke="#1727FF" stroke-width="1.2"/>
<path d="M93.4449 46.1946C92.9707 42.5251 92.0252 39.0035 90.6709 35.6923C89.2523 32.2237 87.3851 28.9861 85.1417 26.0515M93.4393 57.1598C92.4589 64.685 89.4959 71.5873 85.0914 77.3252M77.4654 84.9958C75.1725 86.7773 72.6908 88.3274 70.0556 89.6112C66.0287 91.5729 61.6432 92.9126 57.0239 93.5054M46.1757 93.5054C42.4768 93.0307 38.9278 92.0771 35.5928 90.7087C32.0183 89.2421 28.6897 87.2989 25.6861 84.9584M18.1738 77.4105C15.9288 74.501 14.0551 71.2902 12.6238 67.8492C11.2211 64.4769 10.2433 60.8835 9.75722 57.1358M9.74023 46.308C10.2126 42.5727 11.1734 38.9896 12.5565 35.6247C13.9868 32.1449 15.8687 28.8984 18.1294 25.9583M25.7451 18.3069C28.463 16.1966 31.4458 14.4113 34.6352 13.0093C38.2741 11.4096 42.182 10.3088 46.2722 9.79346M56.9274 9.79346C60.5064 10.2444 63.9459 11.1436 67.1877 12.4331C70.8774 13.9007 74.3111 15.8739 77.4032 18.2671" stroke="#1727FF" stroke-width="1.2"/>
<path d="M66.7945 51.6556C66.7945 55.6852 65.1938 59.5497 62.3444 62.3991C59.495 65.2484 55.6305 66.8492 51.6009 66.8492C47.5713 66.8492 43.7067 65.2484 40.8573 62.3991C38.008 59.5497 36.4072 55.6852 36.4072 51.6556C36.4072 47.6259 38.008 43.7614 40.8573 40.912C43.7067 38.0627 47.5713 36.4619 51.6009 36.4619C55.6305 36.4619 59.495 38.0627 62.3444 40.912C65.1938 43.7614 66.7945 47.6259 66.7945 51.6556Z" stroke="#1727FF" stroke-width="1.54876"/>
<path d="M69.6705 51.6556C69.6705 56.4482 67.7666 61.0445 64.3777 64.4334C60.9888 67.8223 56.3925 69.7261 51.5999 69.7261C46.8073 69.7261 42.2109 67.8223 38.8221 64.4334C35.4332 61.0445 33.5293 56.4482 33.5293 51.6556C33.5293 46.8629 35.4332 42.2666 38.8221 38.8777C42.2109 35.4888 46.8073 33.585 51.5999 33.585C56.3925 33.585 60.9888 35.4888 64.3777 38.8777C67.7666 42.2666 69.6705 46.8629 69.6705 51.6556Z" stroke="#1727FF" stroke-width="1.54876"/>
<path d="M58.3439 81.8804C53.14 83.0348 47.726 82.8226 42.6285 81.2644C42.9803 79.4546 43.9581 76.3556 43.239 74.658C42.5199 72.9604 41.3107 71.5159 39.766 70.5094C38.2213 69.503 36.4114 68.9803 34.568 69.0083C32.7246 69.0362 29.7574 70.839 28.2439 71.8919C26.8813 70.3077 25.6831 68.5894 24.6675 66.7633C23.0963 63.9446 22.0123 60.9851 21.3923 57.9827L21.5056 57.9196C22.8812 57.1534 25.2385 56.0236 26.0688 54.6858C26.8991 53.348 27.3747 51.8206 27.4507 50.2479C27.5268 48.6752 27.2007 47.1091 26.5034 45.6974C25.806 44.2857 23.5606 43.1007 22.2654 42.2054C23.788 37.4993 26.4188 33.2277 29.9364 29.7503C31.3555 30.703 34.2359 32.4185 35.9436 32.489C37.6513 32.5594 39.3453 32.1561 40.838 31.3235C42.3311 30.4917 43.565 29.263 44.4032 27.7735C45.2414 26.2839 44.4257 23.4175 44.3617 21.7095C49.1693 20.5463 54.186 20.555 58.9895 21.7349C59.0703 23.3185 58.3821 26.0803 59.2266 27.4223C60.071 28.7644 61.2458 29.8673 62.6385 30.6254C64.0312 31.3835 65.5952 31.7714 67.1807 31.7521C68.7662 31.7327 71.4943 30.0813 72.8681 29.2895C75.1489 31.4506 77.0865 33.9471 78.6141 36.6928C79.6515 38.554 80.4761 40.4772 81.0961 42.4332C79.4047 43.1667 76.7709 44.414 75.7776 45.9672C74.7844 47.5204 74.2772 49.3347 74.3209 51.1778C74.3646 53.0209 74.9572 54.8091 76.023 56.3135C77.0888 57.8179 79.7789 58.9444 81.5032 59.5969C80.1473 64.7517 77.4804 69.4677 73.7618 73.2862C72.3277 71.9454 69.2796 69.9205 67.3309 69.6823C65.3821 69.4441 63.4081 69.8307 61.6933 70.7866C59.9785 71.7425 58.6114 73.2181 57.7892 75.0009C56.9671 76.7837 57.9576 79.9555 58.3439 81.8804Z" stroke="#1727FF" stroke-width="1.54876" stroke-linejoin="round"/>
<path d="M47.3758 49.3475L44.6053 51.656L47.3758 53.9645C47.4676 54.0398 47.5437 54.1325 47.5996 54.2373C47.6554 54.3422 47.69 54.457 47.7012 54.5753C47.7125 54.6936 47.7002 54.8129 47.6651 54.9264C47.63 55.0399 47.5728 55.1453 47.4968 55.2366C47.4208 55.3279 47.3274 55.4032 47.2221 55.4582C47.1169 55.5132 47.0017 55.5469 46.8834 55.5572C46.765 55.5675 46.6458 55.5542 46.5326 55.5183C46.4194 55.4823 46.3144 55.4242 46.2238 55.3475L42.6238 52.3475C42.5224 52.263 42.4408 52.1573 42.3848 52.0378C42.3288 51.9183 42.2998 51.7879 42.2998 51.656C42.2998 51.524 42.3288 51.3936 42.3848 51.2741C42.4408 51.1546 42.5224 51.0489 42.6238 50.9645L46.2238 47.9645C46.4074 47.8139 46.6431 47.7421 46.8795 47.7646C47.1159 47.7871 47.3338 47.9021 47.4858 48.0845C47.6377 48.267 47.7114 48.5021 47.6908 48.7387C47.6702 48.9752 47.557 49.194 47.3758 49.3475ZM60.5758 50.9645L56.9758 47.9645C56.8851 47.8877 56.7801 47.8296 56.6669 47.7937C56.5537 47.7577 56.4345 47.7444 56.3161 47.7547C56.1978 47.7651 56.0827 47.7987 55.9774 47.8537C55.8721 47.9087 55.7787 47.9841 55.7027 48.0753C55.6267 48.1666 55.5695 48.272 55.5344 48.3855C55.4993 48.499 55.487 48.6183 55.4983 48.7366C55.5095 48.8549 55.5441 48.9697 55.5999 49.0746C55.6558 49.1794 55.7319 49.2722 55.8238 49.3475L58.5943 51.656L55.8238 53.9645C55.7319 54.0398 55.6558 54.1325 55.5999 54.2373C55.5441 54.3422 55.5095 54.457 55.4983 54.5753C55.487 54.6936 55.4993 54.8129 55.5344 54.9264C55.5695 55.0399 55.6267 55.1453 55.7027 55.2366C55.7787 55.3279 55.8721 55.4032 55.9774 55.4582C56.0827 55.5132 56.1978 55.5469 56.3161 55.5572C56.4345 55.5675 56.5537 55.5542 56.6669 55.5183C56.7801 55.4823 56.8851 55.4242 56.9758 55.3475L60.5758 52.3475C60.6772 52.263 60.7587 52.1573 60.8147 52.0378C60.8707 51.9183 60.8997 51.7879 60.8997 51.656C60.8997 51.524 60.8707 51.3936 60.8147 51.2741C60.7587 51.1546 60.6772 51.0489 60.5758 50.9645ZM54.3073 44.21C54.1962 44.1696 54.0782 44.1514 53.9601 44.1566C53.842 44.1618 53.7261 44.1902 53.619 44.2403C53.5118 44.2903 53.4156 44.3609 53.3358 44.4481C53.256 44.5353 53.1941 44.6373 53.1538 44.7485L48.3538 57.9485C48.2724 58.1727 48.2834 58.4201 48.3844 58.6363C48.4854 58.8525 48.668 59.0197 48.8923 59.1012C48.9907 59.1375 49.0948 59.1561 49.1998 59.156C49.3845 59.156 49.5649 59.0991 49.7162 58.9931C49.8676 58.8871 49.9826 58.7371 50.0458 58.5635L54.8458 45.3635C54.8862 45.2524 54.9043 45.1344 54.8991 45.0163C54.8939 44.8982 54.8655 44.7823 54.8155 44.6752C54.7655 44.568 54.6948 44.4718 54.6076 44.392C54.5204 44.3122 54.4184 44.2503 54.3073 44.21Z" fill="#1727FF"/>
<circle cx="51.5999" cy="6.69219" r="5.73623" stroke="#1727FF" stroke-width="1.2"/>
<circle cx="51.6011" cy="6.69239" r="2.50108" fill="#1727FF" stroke="#1727FF" stroke-width="1.2"/>
<circle cx="51.5999" cy="96.6199" r="5.73623" stroke="#1727FF" stroke-width="1.2"/>
<circle cx="51.6011" cy="96.6196" r="2.50108" fill="#1727FF" stroke="#1727FF" stroke-width="1.2"/>
<circle cx="83.4075" cy="20.0701" r="5.73623" stroke="#1727FF" stroke-width="1.2"/>
<circle cx="83.4077" cy="20.0698" r="2.50108" fill="#1727FF" stroke="#1727FF" stroke-width="1.2"/>
<circle cx="96.0804" cy="51.6565" r="5.73623" stroke="#1727FF" stroke-width="1.2"/>
<circle cx="96.0815" cy="51.6567" r="2.50108" fill="#1727FF" stroke="#1727FF" stroke-width="1.2"/>
<circle cx="7.11748" cy="51.6565" r="5.73623" stroke="#1727FF" stroke-width="1.2"/>
<circle cx="7.11866" cy="51.6567" r="2.50108" fill="#1727FF" stroke="#1727FF" stroke-width="1.2"/>
<circle cx="19.7903" cy="20.0701" r="5.73623" stroke="#1727FF" stroke-width="1.2"/>
<circle cx="19.7905" cy="20.0698" r="2.50108" fill="#1727FF" stroke="#1727FF" stroke-width="1.2"/>
<circle cx="83.4075" cy="83.2327" r="5.73623" stroke="#1727FF" stroke-width="1.2"/>
<circle cx="83.4077" cy="83.2329" r="2.50108" fill="#1727FF" stroke="#1727FF" stroke-width="1.2"/>
<circle cx="19.7903" cy="83.2327" r="5.73623" stroke="#1727FF" stroke-width="1.2"/>
<circle cx="19.7905" cy="83.2329" r="2.50108" fill="#1727FF" stroke="#1727FF" stroke-width="1.2"/>
</svg>
