<svg width="104" height="104" viewBox="0 0 104 104" fill="none" xmlns="http://www.w3.org/2000/svg">
<path d="M79.811 6.02856C83.0589 6.02856 85.6919 8.66151 85.6919 11.9094C85.6917 15.1572 83.0588 17.7903 79.811 17.7903C76.862 17.7903 74.42 15.6191 73.9956 12.7883H67.4751V26.3303C67.4751 26.6616 67.2067 26.9308 66.8755 26.9309C66.5441 26.9309 66.2759 26.6617 66.2759 26.3303V12.1887C66.2759 11.8574 66.5442 11.5891 66.8755 11.5891H73.939C74.1051 8.48999 76.6705 6.0286 79.811 6.02856ZM79.811 7.22876C77.2271 7.2288 75.1323 9.32198 75.1304 11.9055C75.1761 11.9901 75.2046 12.0858 75.2046 12.1887C75.2046 12.2701 75.1871 12.3475 75.1577 12.4182C75.4114 14.7638 77.3979 16.5901 79.811 16.5901C82.3961 16.5901 84.4915 14.4944 84.4917 11.9094C84.4917 9.32425 82.3962 7.22876 79.811 7.22876ZM79.8667 8.59888C81.6526 8.59888 83.1011 10.0463 83.1011 11.8323C83.101 13.6182 81.6526 15.0657 79.8667 15.0657C78.0809 15.0655 76.6333 13.6181 76.6333 11.8323C76.6333 10.0464 78.0809 8.59905 79.8667 8.59888Z" fill="#1727FF"/>
<path d="M79.811 96.5515C83.0589 96.5515 85.6919 93.9186 85.6919 90.6707C85.6916 87.4229 83.0588 84.7898 79.811 84.7898C76.8623 84.7898 74.4205 86.9605 73.9956 89.7908H67.4751V76.2488C67.4748 75.9177 67.2066 75.6483 66.8755 75.6482C66.5443 75.6482 66.2761 75.9176 66.2759 76.2488V90.3904C66.2759 90.7218 66.5441 90.99 66.8755 90.99H73.939C74.1046 94.0896 76.6701 96.5515 79.811 96.5515ZM79.811 95.3513C77.227 95.3513 75.1322 93.2581 75.1304 90.6746C75.1762 90.5898 75.2046 90.4935 75.2046 90.3904C75.2045 90.3091 75.1881 90.2316 75.1587 90.1609C75.4129 87.8158 77.3983 85.99 79.811 85.99C82.3961 85.99 84.4914 88.0857 84.4917 90.6707C84.4917 93.2558 82.3962 95.3513 79.811 95.3513ZM79.8667 93.9705C81.6525 93.9705 83.1008 92.5228 83.1011 90.7371C83.1011 88.9511 81.6526 87.5027 79.8667 87.5027C78.0809 87.5029 76.6333 88.9512 76.6333 90.7371C76.6335 92.5227 78.0811 93.9703 79.8667 93.9705Z" fill="#1727FF"/>
<path d="M23.217 6.02856C19.9694 6.02883 17.3362 8.66168 17.3362 11.9094C17.3364 15.157 19.9695 17.79 23.217 17.7903C26.1661 17.7903 28.608 15.6191 29.0325 12.7883H35.5549V26.3303C35.5549 26.6616 35.8233 26.9307 36.1545 26.9309C36.4859 26.9309 36.7542 26.6617 36.7542 26.3303V12.1887C36.7541 11.8574 36.4859 11.5891 36.1545 11.5891H29.0901C28.924 8.48996 26.3576 6.02857 23.217 6.02856ZM23.217 7.22876C25.8022 7.22877 27.8987 9.32426 27.8987 11.9094C27.8541 11.9932 27.8255 12.0872 27.8254 12.1887C27.8254 12.2687 27.8429 12.3445 27.8713 12.4143C27.6194 14.7618 25.6315 16.5901 23.217 16.5901C20.6322 16.5898 18.5366 14.4942 18.5364 11.9094C18.5364 9.32442 20.6321 7.22902 23.217 7.22876ZM23.218 8.67505C21.4321 8.67505 19.9846 10.1235 19.9846 11.9094C19.9848 13.6952 21.4322 15.1428 23.218 15.1428C25.0038 15.1428 26.4513 13.6952 26.4514 11.9094C26.4514 10.1235 25.0039 8.67506 23.218 8.67505Z" fill="#1727FF"/>
<path d="M23.217 96.5515C19.9694 96.5512 17.3362 93.9184 17.3362 90.6707C17.3364 87.4231 19.9695 84.7901 23.217 84.7898C26.1657 84.7898 28.6076 86.9605 29.0325 89.7908H35.5549V76.2488C35.5552 75.9177 35.8235 75.6484 36.1545 75.6482C36.4858 75.6482 36.7539 75.9176 36.7542 76.2488V90.3904C36.7542 90.7218 36.4859 90.99 36.1545 90.99H29.0901C28.9245 94.0896 26.358 96.5515 23.217 96.5515ZM23.217 95.3513C25.8022 95.3513 27.8987 93.2558 27.8987 90.6707C27.854 90.5868 27.8254 90.4921 27.8254 90.3904C27.8255 90.3107 27.8431 90.2353 27.8713 90.1658C27.6194 87.8183 25.6315 85.99 23.217 85.99C20.6322 85.9903 18.5366 88.0859 18.5364 90.6707C18.5364 93.2557 20.6321 95.3511 23.217 95.3513ZM23.2649 93.9705C21.4792 93.9703 20.0317 92.5228 20.0315 90.7371C20.0315 88.9512 21.4791 87.5028 23.2649 87.5027C25.0508 87.5027 26.4993 88.9511 26.4993 90.7371C26.4991 92.5229 25.0507 93.9705 23.2649 93.9705Z" fill="#1727FF"/>
<path d="M0.980713 33.7456C0.980713 30.4977 3.61366 27.8648 6.86157 27.8647C10.1094 27.8649 12.7424 30.4978 12.7424 33.7456C12.7423 36.6942 10.5717 39.1353 7.74146 39.5601L7.74146 46.0835L17.6838 46.0835C18.0152 46.0835 18.2834 46.3517 18.2834 46.6831C18.2832 47.0143 18.0151 47.2827 17.6838 47.2827L7.14185 47.2827C6.81074 47.2826 6.54245 47.0142 6.54224 46.6831L6.54224 39.6177C3.4428 39.452 0.980901 36.8863 0.980713 33.7456ZM2.18091 33.7456C2.1811 36.3304 4.27586 38.4259 6.8606 38.4263C6.9447 38.3812 7.03973 38.3541 7.14185 38.354C7.22144 38.354 7.29699 38.3708 7.36646 38.3989C9.7139 38.147 11.5421 36.1599 11.5422 33.7456C11.5422 31.1605 9.44661 29.0651 6.86157 29.0649C4.2764 29.065 2.18091 31.1604 2.18091 33.7456ZM3.67896 33.7925C3.67918 32.0069 5.12677 30.5593 6.91235 30.5591C8.69815 30.5591 10.1465 32.0067 10.1467 33.7925C10.1467 35.5784 8.69829 37.0269 6.91235 37.0269C5.12663 37.0266 3.67896 35.5783 3.67896 33.7925Z" fill="#1727FF"/>
<path d="M102.997 31.9702C102.997 28.7223 100.364 26.0894 97.1165 26.0894C93.8686 26.0894 91.2356 28.7223 91.2356 31.9702C91.2357 34.9186 93.4057 37.3595 96.2356 37.7847L96.2356 44.3081L86.2932 44.3081C85.9621 44.3084 85.6936 44.5765 85.6936 44.9077C85.6937 45.2388 85.9622 45.5071 86.2932 45.5073L96.8352 45.5073C97.1665 45.5073 97.4347 45.239 97.4348 44.9077L97.4348 37.8423C100.535 37.677 102.997 35.1112 102.997 31.9702ZM101.797 31.9702C101.797 34.5553 99.7015 36.6518 97.1165 36.6519C97.0323 36.6069 96.9373 36.5786 96.8352 36.5786C96.7556 36.5787 96.6801 36.5953 96.6106 36.6235C94.2635 36.3713 92.4359 34.3843 92.4358 31.9702C92.4358 29.3851 94.5313 27.2896 97.1165 27.2896C99.7016 27.2896 101.797 29.385 101.797 31.9702ZM100.336 31.9487C100.336 30.1629 98.8885 28.7156 97.1028 28.7153C95.3168 28.7153 93.8684 30.1628 93.8684 31.9487C93.8685 33.7346 95.3169 35.1821 97.1028 35.1821C98.8885 35.1819 100.336 33.7345 100.336 31.9487Z" fill="#1727FF"/>
<path d="M0.980713 68.3203C0.980713 71.5682 3.61366 74.2012 6.86157 74.2012C10.1094 74.201 12.7424 71.5681 12.7424 68.3203C12.7424 65.3716 10.5717 62.9307 7.74146 62.5059L7.74146 55.9824L17.6838 55.9824C18.0152 55.9824 18.2834 55.7142 18.2834 55.3828C18.2833 55.0515 18.0151 54.7832 17.6838 54.7832L7.14185 54.7832C6.81067 54.7834 6.54234 55.0516 6.54224 55.3828L6.54224 62.4482C3.44274 62.614 0.980798 65.1795 0.980713 68.3203ZM2.18091 68.3203C2.181 65.7352 4.27646 63.6387 6.86157 63.6387C6.94558 63.6836 7.03991 63.7119 7.14185 63.7119C7.22173 63.7119 7.29776 63.6953 7.36743 63.667C9.71447 63.9193 11.5422 65.9062 11.5422 68.3203C11.5422 70.9054 9.44661 73.0008 6.86157 73.001C4.2764 73.001 2.18091 70.9055 2.18091 68.3203ZM3.67896 68.3506C3.67896 70.1364 5.12663 71.5847 6.91235 71.585C8.69829 71.585 10.1467 70.1365 10.1467 68.3506C10.1466 66.5648 8.69818 65.1172 6.91235 65.1172C5.12674 65.1174 3.67913 66.565 3.67896 68.3506Z" fill="#1727FF"/>
<path d="M102.997 68.3203C102.997 71.5682 100.364 74.2012 97.1165 74.2012C93.8686 74.2011 91.2356 71.5682 91.2356 68.3203C91.2357 65.3719 93.4057 62.931 96.2356 62.5059L96.2356 55.9824L86.2932 55.9824C85.9621 55.9822 85.6936 55.714 85.6936 55.3828C85.6937 55.0517 85.9621 54.7835 86.2932 54.7832L96.8352 54.7832C97.1665 54.7832 97.4347 55.0515 97.4348 55.3828L97.4348 62.4482C100.535 62.6136 102.997 65.1793 102.997 68.3203ZM101.797 68.3203C101.797 65.7352 99.7016 63.6387 97.1165 63.6387C97.0323 63.6836 96.9373 63.7119 96.8352 63.7119C96.7556 63.7119 96.6801 63.6952 96.6106 63.667C94.2635 63.9192 92.4359 65.9062 92.4358 68.3203C92.4358 70.9055 94.5313 73.0009 97.1165 73.001C99.7016 73.001 101.797 70.9055 101.797 68.3203ZM100.397 68.3633C100.397 70.149 98.9482 71.5967 97.1624 71.5967C95.3767 71.5965 93.9292 70.1489 93.929 68.3633C93.929 66.5775 95.3766 65.1291 97.1624 65.1289C98.9483 65.1289 100.397 66.5773 100.397 68.3633Z" fill="#1727FF"/>
<path d="M76.0263 41.4553C76.0268 39.7819 75.5823 38.1383 74.7383 36.6933C73.8943 35.2482 72.6812 34.0536 71.2234 33.2319C69.7656 32.4101 68.1154 31.9908 66.4422 32.0169C64.7689 32.0431 63.1327 32.5137 61.7012 33.3805C61.2852 31.2275 60.1326 29.2864 58.4413 27.8907C56.75 26.4949 54.6255 25.7314 52.4327 25.7314C50.2398 25.7314 48.1153 26.4949 46.424 27.8907C44.7327 29.2864 43.5801 31.2275 43.1641 33.3805M76.0263 41.4553C78.112 41.4553 80.1123 42.2839 81.5871 43.7587C83.0619 45.2334 83.8904 47.2337 83.8904 49.3194C83.8904 51.405 83.0619 53.4053 81.5871 54.8801C80.1123 56.3549 78.112 57.1834 76.0263 57.1834L28.8421 57.1834C26.7565 57.1834 24.7562 56.3549 23.2814 54.8801C21.8066 53.4053 20.9781 51.405 20.9781 49.3194C20.9781 47.2337 21.8066 45.2334 23.2814 43.7586C24.7562 42.2839 26.7565 41.4553 28.8421 41.4553C28.842 39.7823 29.2866 38.1394 30.1305 36.6948C30.9743 35.2502 32.187 34.0558 33.6443 33.2342C35.1017 32.4125 36.7512 31.9931 38.424 32.0188C40.0968 32.0445 41.7327 32.5145 43.1641 33.3805M76.0263 41.4553C73.4532 41.4553 71.1695 42.6916 69.7351 44.6009M43.1641 33.3805C45.033 34.5094 46.4526 36.2514 47.1811 38.3097" stroke="#1727FF" stroke-width="1.8" stroke-linecap="round" stroke-linejoin="round"/>
<path d="M43.7472 57.0397C43.3927 58.3252 43.3118 59.6838 43.526 61.026C43.9194 63.4919 45.2762 65.7004 47.298 67.1658C49.3198 68.6312 51.8409 69.2335 54.3067 68.8401C56.7725 68.4467 58.9811 67.0898 60.4465 65.068C61.9119 63.0463 62.5141 60.5252 62.1207 58.0593C62.0754 57.7754 62.0174 57.4948 61.9469 57.2184" stroke="#1727FF" stroke-width="1.54876"/>
<path d="M47.0033 56.8944C47.0033 56.8944 51.4931 57.7517 53.1682 57.4844C54.8433 57.2172 58.6933 57.0006 58.6933 57.0006C58.9043 57.4875 59.0555 58.0028 59.1406 58.5357C59.4078 60.2108 58.9987 61.9234 58.0032 63.2968C57.0077 64.6703 55.5074 65.592 53.8324 65.8592C52.1573 66.1265 50.4447 65.7174 49.0712 64.7219C47.6978 63.7264 46.7761 62.2261 46.5088 60.551C46.3094 59.3009 46.4867 58.0298 47.0033 56.8944Z" fill="#1727FF" stroke="#1727FF" stroke-width="1.0521"/>
<path d="M70.5176 57.1844C70.6727 58.3814 70.706 59.591 70.6169 60.7946C70.4811 62.6537 70.0654 64.4261 69.4122 66.0721L69.3375 66.0667C68.4304 66.0001 66.3214 64.9659 65.4962 65.3482C64.671 65.7306 63.9568 66.317 63.4212 67.052C62.8855 67.787 62.546 68.6464 62.4348 69.5491C62.3236 70.4518 63.6442 72.5679 63.9854 73.411C61.7574 75.1996 59.1324 76.4269 56.3312 76.9895C55.9484 76.0795 55.3213 74.0931 54.5194 73.5173C53.7174 72.9415 52.7717 72.5988 51.787 72.5271C50.8024 72.4549 49.817 72.6566 48.9398 73.1097C48.0627 73.5628 47.328 75.4497 46.817 76.2945C44.1273 75.3307 41.7085 73.735 39.7641 71.6415C40.2275 70.8515 41.6804 68.7558 41.6986 67.84C41.7167 66.9243 41.4995 66.0192 41.0677 65.2114C40.636 64.4037 40.0041 63.7202 39.2326 63.2266C38.4611 62.7329 36.3759 63.6455 35.4615 63.5919C35.0462 61.8252 34.8776 59.6595 35.0113 57.8495" stroke="#1727FF" stroke-width="1.54876" stroke-linejoin="round"/>
</svg>
