<svg width="104" height="104" viewBox="0 0 104 104" fill="none" xmlns="http://www.w3.org/2000/svg">
<path d="M96.3103 45.9707C95.8076 42.0805 94.8051 38.3471 93.3694 34.8367C91.8655 31.1595 89.8861 27.7272 87.5077 24.6162M96.3043 57.5953C95.265 65.5731 92.1237 72.8904 87.4544 78.9734M79.3698 87.1053C76.9389 88.994 74.308 90.6373 71.5143 91.9983C67.2453 94.078 62.596 95.4982 57.6989 96.1267M46.1983 96.1267C42.277 95.6235 38.5145 94.6125 34.9789 93.1618C31.1895 91.6069 27.6608 89.547 24.4765 87.0656M16.5125 79.0638C14.1323 75.9794 12.146 72.5755 10.6286 68.9276C9.14154 65.3525 8.10495 61.543 7.58967 57.5698M7.57166 46.0908C8.07248 42.1309 9.09099 38.3323 10.5572 34.7651C12.0736 31.076 14.0687 27.6343 16.4654 24.5174M24.539 16.4058C27.4204 14.1686 30.5826 12.276 33.9638 10.7896C37.8216 9.09368 41.9645 7.92667 46.3007 7.38037M57.5966 7.38037C61.3909 7.8584 65.0372 8.81169 68.474 10.1787C72.3855 11.7346 76.0257 13.8265 79.3038 16.3636" stroke="#1727FF" stroke-width="1.2"/>
<path d="M93.7935 46.2984C93.3194 42.6289 92.3738 39.1072 91.0195 35.7961C89.6009 32.3274 87.7338 29.0898 85.4903 26.1553M93.7879 57.2636C92.8076 64.7888 89.8445 71.691 85.44 77.429M77.8141 85.0996C75.5211 86.8811 73.0395 88.4312 70.4042 89.715C66.3774 91.6766 61.9918 93.0164 57.3726 93.6091M46.5243 93.6091C42.8254 93.1345 39.2764 92.1808 35.9414 90.8125C32.3669 89.3458 29.0384 87.4027 26.0347 85.0621M18.5225 77.5142C16.2774 74.6047 14.4037 71.394 12.9724 67.953C11.5697 64.5807 10.5919 60.9873 10.1059 57.2396M10.0889 46.4117C10.5613 42.6764 11.522 39.0933 12.9051 35.7285C14.3354 32.2486 16.2174 29.0022 18.4781 26.0621M26.0937 18.4106C28.8116 16.3004 31.7944 14.5151 34.9838 13.113C38.6228 11.5133 42.5307 10.4125 46.6209 9.89722M57.276 9.89722C60.8551 10.3481 64.2945 11.2473 67.5363 12.5368C71.226 14.0044 74.6597 15.9776 77.7519 18.3708" stroke="#1727FF" stroke-width="1.2"/>
<path d="M67.1424 51.7588C67.1424 55.7884 65.5417 59.653 62.6923 62.5023C59.8429 65.3517 55.9784 66.9525 51.9488 66.9525C47.9192 66.9525 44.0546 65.3517 41.2052 62.5023C38.3559 59.653 36.7551 55.7884 36.7551 51.7588C36.7551 47.7292 38.3559 43.8647 41.2052 41.0153C44.0546 38.1659 47.9192 36.5652 51.9488 36.5652C55.9784 36.5652 59.8429 38.1659 62.6923 41.0153C65.5417 43.8647 67.1424 47.7292 67.1424 51.7588Z" stroke="#1727FF" stroke-width="1.54876"/>
<path d="M70.0187 51.7588C70.0187 56.5514 68.1149 61.1478 64.726 64.5367C61.3371 67.9256 56.7408 69.8294 51.9482 69.8294C47.1555 69.8294 42.5592 67.9256 39.1703 64.5367C35.7814 61.1478 33.8776 56.5514 33.8776 51.7588C33.8776 46.9662 35.7814 42.3699 39.1703 38.981C42.5592 35.5921 47.1555 33.6882 51.9482 33.6882C56.7408 33.6882 61.3371 35.5921 64.726 38.981C68.1149 42.3699 70.0187 46.9662 70.0187 51.7588Z" stroke="#1727FF" stroke-width="1.54876"/>
<path d="M58.692 81.9839C53.4882 83.1383 48.0742 82.9261 42.9767 81.3679C43.3284 79.5581 44.3063 76.4591 43.5872 74.7615C42.8681 73.0639 41.6588 71.6194 40.1141 70.613C38.5694 69.6065 36.7596 69.0838 34.9162 69.1118C33.0727 69.1398 30.1055 70.9425 28.5921 71.9954C27.2295 70.4113 26.0312 68.6929 25.0157 66.8668C23.4445 64.0481 22.3605 61.0887 21.7405 58.0862L21.8537 58.0231C23.2293 57.2569 25.5866 56.1271 26.4169 54.7893C27.2472 53.4515 27.7228 51.9241 27.7989 50.3514C27.8749 48.7787 27.5489 47.2126 26.8515 45.8009C26.1542 44.3892 23.9088 43.2042 22.6136 42.3089C24.1362 37.6028 26.767 33.3313 30.2846 29.8538C31.7036 30.8065 34.584 32.522 36.2917 32.5925C37.9995 32.6629 39.6934 32.2596 41.1861 31.427C42.6793 30.5952 43.9132 29.3666 44.7513 27.877C45.5895 26.3874 44.7739 23.521 44.7099 21.813C49.5175 20.6498 54.5341 20.6586 59.3377 21.8384C59.4184 23.422 58.7302 26.1838 59.5747 27.5259C60.4192 28.8679 61.594 29.9708 62.9867 30.7289C64.3794 31.487 65.9433 31.8749 67.5289 31.8556C69.1144 31.8362 71.8425 30.1848 73.2163 29.393C75.4971 31.5541 77.4347 34.0506 78.9622 36.7963C79.9996 38.6575 80.8242 40.5807 81.4442 42.5367C79.7528 43.2702 77.119 44.5175 76.1258 46.0707C75.1325 47.6239 74.6253 49.4382 74.669 51.2813C74.7127 53.1244 75.3054 54.9126 76.3711 56.417C77.4369 57.9214 80.127 59.0479 81.8513 59.7005C80.4955 64.8552 77.8285 69.5712 74.1099 73.3898C72.6759 72.0489 69.6277 70.024 67.679 69.7858C65.7303 69.5476 63.7562 69.9343 62.0414 70.8901C60.3266 71.846 58.9596 73.3216 58.1374 75.1044C57.3152 76.8872 58.3057 80.059 58.692 81.9839Z" stroke="#1727FF" stroke-width="1.54876" stroke-linejoin="round"/>
<g clip-path="url(#clip0_353_20608)">
<path d="M47.7245 49.4515L44.954 51.76L47.7245 54.0685C47.8164 54.1438 47.8925 54.2365 47.9483 54.3413C48.0042 54.4462 48.0387 54.561 48.05 54.6793C48.0612 54.7976 48.049 54.9169 48.0139 55.0304C47.9788 55.1439 47.9216 55.2493 47.8456 55.3406C47.7695 55.4319 47.6762 55.5072 47.5709 55.5622C47.4656 55.6172 47.3505 55.6509 47.2321 55.6612C47.1138 55.6715 46.9946 55.6583 46.8814 55.6223C46.7681 55.5863 46.6632 55.5282 46.5725 55.4515L42.9725 52.4515C42.8711 52.367 42.7895 52.2613 42.7336 52.1418C42.6776 52.0223 42.6486 51.8919 42.6486 51.76C42.6486 51.628 42.6776 51.4976 42.7336 51.3781C42.7895 51.2586 42.8711 51.1529 42.9725 51.0685L46.5725 48.0685C46.7562 47.918 46.9919 47.8461 47.2282 47.8686C47.4646 47.8911 47.6825 48.0061 47.8345 48.1885C47.9865 48.371 48.0602 48.6061 48.0396 48.8427C48.019 49.0792 47.9057 49.298 47.7245 49.4515ZM60.9245 51.0685L57.3245 48.0685C57.2338 47.9917 57.1289 47.9337 57.0157 47.8977C56.9025 47.8617 56.7832 47.8484 56.6649 47.8588C56.5465 47.8691 56.4314 47.9027 56.3261 47.9577C56.2208 48.0127 56.1275 48.0881 56.0515 48.1793C55.9754 48.2706 55.9182 48.376 55.8831 48.4895C55.8481 48.603 55.8358 48.7223 55.847 48.8406C55.8583 48.9589 55.8928 49.0737 55.9487 49.1786C56.0046 49.2834 56.0806 49.3762 56.1725 49.4515L58.943 51.76L56.1725 54.0685C56.0806 54.1438 56.0046 54.2365 55.9487 54.3413C55.8928 54.4462 55.8583 54.561 55.847 54.6793C55.8358 54.7976 55.8481 54.9169 55.8831 55.0304C55.9182 55.1439 55.9754 55.2493 56.0515 55.3406C56.1275 55.4319 56.2208 55.5072 56.3261 55.5622C56.4314 55.6172 56.5465 55.6509 56.6649 55.6612C56.7832 55.6715 56.9025 55.6583 57.0157 55.6223C57.1289 55.5863 57.2338 55.5282 57.3245 55.4515L60.9245 52.4515C61.0259 52.367 61.1075 52.2613 61.1635 52.1418C61.2195 52.0223 61.2485 51.8919 61.2485 51.76C61.2485 51.628 61.2195 51.4976 61.1635 51.3781C61.1075 51.2586 61.0259 51.1529 60.9245 51.0685ZM54.656 44.314C54.5449 44.2736 54.427 44.2554 54.3089 44.2606C54.1907 44.2658 54.0748 44.2942 53.9677 44.3443C53.8606 44.3943 53.7644 44.4649 53.6846 44.5521C53.6047 44.6393 53.5429 44.7413 53.5025 44.8525L48.7025 58.0525C48.6212 58.2767 48.6322 58.5241 48.7331 58.7403C48.8341 58.9565 49.0168 59.1237 49.241 59.2052C49.3395 59.2415 49.4436 59.2601 49.5485 59.26C49.7333 59.26 49.9136 59.2031 50.065 59.0971C50.2163 58.9911 50.3314 58.8411 50.3945 58.6675L55.1945 45.4675C55.2349 45.3564 55.253 45.2384 55.2478 45.1203C55.2426 45.0022 55.2142 44.8863 55.1642 44.7792C55.1142 44.672 55.0436 44.5758 54.9564 44.496C54.8692 44.4162 54.7671 44.3543 54.656 44.314Z" fill="#1727FF"/>
</g>
<circle cx="51.9479" cy="6.79619" r="5.73623" stroke="#1727FF" stroke-width="1.2"/>
<circle cx="51.9487" cy="6.79615" r="2.50108" fill="#1727FF" stroke="#1727FF" stroke-width="1.2"/>
<circle cx="51.9479" cy="96.7237" r="5.73623" stroke="#1727FF" stroke-width="1.2"/>
<circle cx="51.9487" cy="96.7236" r="2.50108" fill="#1727FF" stroke="#1727FF" stroke-width="1.2"/>
<circle cx="83.7561" cy="20.1741" r="5.73623" stroke="#1727FF" stroke-width="1.2"/>
<circle cx="83.7566" cy="20.1741" r="2.50108" fill="#1727FF" stroke="#1727FF" stroke-width="1.2"/>
<circle cx="96.4284" cy="51.7601" r="5.73623" stroke="#1727FF" stroke-width="1.2"/>
<circle cx="96.4292" cy="51.76" r="2.50108" fill="#1727FF" stroke="#1727FF" stroke-width="1.2"/>
<circle cx="7.46636" cy="51.7601" r="5.73623" stroke="#1727FF" stroke-width="1.2"/>
<circle cx="7.46704" cy="51.76" r="2.50108" fill="#1727FF" stroke="#1727FF" stroke-width="1.2"/>
<circle cx="20.1386" cy="20.1741" r="5.73623" stroke="#1727FF" stroke-width="1.2"/>
<circle cx="20.1392" cy="20.1741" r="2.50108" fill="#1727FF" stroke="#1727FF" stroke-width="1.2"/>
<circle cx="83.7561" cy="83.3365" r="5.73623" stroke="#1727FF" stroke-width="1.2"/>
<circle cx="83.7566" cy="83.3364" r="2.50108" fill="#1727FF" stroke="#1727FF" stroke-width="1.2"/>
<circle cx="20.1386" cy="83.3365" r="5.73623" stroke="#1727FF" stroke-width="1.2"/>
<circle cx="20.1392" cy="83.3364" r="2.50108" fill="#1727FF" stroke="#1727FF" stroke-width="1.2"/>
<defs>
<clipPath id="clip0_353_20608">
<rect width="19.2" height="19.2" fill="white" transform="translate(42.3485 42.1599)"/>
</clipPath>
</defs>
</svg>
