<svg width="104" height="109" viewBox="0 0 104 109" fill="none" xmlns="http://www.w3.org/2000/svg">
<path d="M9.20691 84.0528L16.6628 76.5969L16.6628 67.9255M9.20691 84.0528C8.59708 83.443 7.76998 83.1004 6.90756 83.1004C6.04514 83.1004 5.21804 83.443 4.60822 84.0528C3.9984 84.6626 3.65581 85.4897 3.65581 86.3522C3.65581 87.2146 3.9984 88.0417 4.60822 88.6515C5.21804 89.2613 6.04514 89.6039 6.90756 89.6039C7.76998 89.6039 8.59708 89.2613 9.20691 88.6515C9.81673 88.0417 10.1593 87.2146 10.1593 86.3522C10.1593 85.4897 9.81673 84.6626 9.20691 84.0528ZM17.7588 93.8138L25.2147 86.3578L25.2147 67.9255M17.7588 93.8138C17.1489 93.2039 16.3218 92.8613 15.4594 92.8613C14.597 92.8613 13.7699 93.2039 13.1601 93.8138C12.5503 94.4236 12.2077 95.2507 12.2077 96.1131C12.2077 96.9755 12.5503 97.8026 13.1601 98.4124C13.7699 99.0223 14.597 99.3649 15.4594 99.3649C16.3218 99.3649 17.1489 99.0223 17.7588 98.4124C18.3686 97.8026 18.7112 96.9755 18.7112 96.1131C18.7112 95.2507 18.3686 94.4236 17.7588 93.8138ZM27.3677 102.258L34.8236 94.8026L34.8236 67.9255M27.3677 102.258C26.7578 101.649 25.9307 101.306 25.0683 101.306C24.2059 101.306 23.3788 101.649 22.769 102.258C22.1592 102.868 21.8166 103.695 21.8166 104.558C21.8166 105.42 22.1592 106.247 22.769 106.857C23.3788 107.467 24.2059 107.81 25.0683 107.81C25.9307 107.81 26.7578 107.467 27.3677 106.857C27.9775 106.247 28.3201 105.42 28.3201 104.558C28.3201 103.695 27.9775 102.868 27.3677 102.258Z" stroke="#CACACA" stroke-width="1.8" stroke-linecap="round" stroke-linejoin="round"/>
<path d="M34.272 30.1245C40.0975 30.1245 42.3725 25.5712 42.3725 20.4929M50.3422 37.0567C50.3422 33.5492 52.3888 28.8565 58.9973 28.8565" stroke="#CACACA" stroke-width="1.8" stroke-linecap="round" stroke-linejoin="round"/>
<path d="M58.9972 46.5246C58.9972 46.5246 59.2757 62.925 45.4257 62.925H17.433C5.14411 62.925 4.36118 46.5246 17.433 46.5246C5.14411 46.5246 4.36118 30.1242 17.433 30.1242C3.50924 18.7999 20.6313 8.93965 28.5178 16.556C20.3339 6.2077 37.6821 0.447516 43.6504 8.74576C42.9484 0.447516 51.9152 -1.04917 60.2323 5.17287L59.4946 5.71752C63.5425 2.00956 76.8475 4.02693 76.8475 14.0179L73.0638 16.556C84.7696 5.83298 97.2894 23.0961 87.5563 29.4097H89.8313C97.9295 29.4097 98.8528 46.5246 87.5563 46.5246H40.0975" stroke="#CACACA" stroke-width="1.8" stroke-linecap="round" stroke-linejoin="round"/>
<path d="M59.492 5.71973C55.3751 9.49304 59.0113 10.6825 52.2101 16.9133M17.4352 30.1243H34.2717M17.4352 46.5247H23.8271M50.342 46.5247V37.0565M89.8311 29.4097H75.1958" stroke="#CACACA" stroke-width="1.8" stroke-linecap="round" stroke-linejoin="round"/>
<path d="M83.8998 67.9248C83.8998 69.9655 83.0892 71.9226 81.6462 73.3656C80.2031 74.8086 78.246 75.6193 76.2053 75.6193C74.1646 75.6193 72.2074 74.8086 70.7644 73.3656C69.3214 71.9226 68.5107 69.9655 68.5107 67.9248C68.5107 65.8841 69.3214 63.9269 70.7644 62.4839C72.2074 61.0409 74.1646 60.2302 76.2053 60.2302C78.246 60.2302 80.2031 61.0409 81.6462 62.4839C83.0892 63.9269 83.8998 65.8841 83.8998 67.9248Z" stroke="#CACACA" stroke-width="1.2"/>
<path d="M81.4314 67.9248C81.4314 69.3111 80.8807 70.6406 79.9004 71.6209C78.9201 72.6011 77.5906 73.1518 76.2043 73.1518C74.818 73.1518 73.4885 72.6011 72.5083 71.6209C71.528 70.6406 70.9773 69.3111 70.9773 67.9248C70.9773 66.5385 71.528 65.209 72.5083 64.2287C73.4885 63.2485 74.818 62.6978 76.2043 62.6978C77.5906 62.6978 78.9201 63.2485 79.9004 64.2287C80.8807 65.209 81.4314 66.5385 81.4314 67.9248Z" fill="#CACACA" stroke="#CACACA" stroke-width="1.0521"/>
<path d="M80.0381 82.0328C77.6089 82.6895 75.0512 82.7063 72.6137 82.0815C72.7405 81.2205 72.6075 80.3412 72.2317 79.5561C71.856 78.7711 71.2545 78.116 70.5044 77.6747C69.7542 77.2334 68.8894 77.026 68.0207 77.079C67.1519 77.132 66.3188 77.443 65.6278 77.9722C64.951 77.2545 64.3488 76.4701 63.8305 75.6308C63.0287 74.3355 62.4536 72.9632 62.0964 71.5607L62.1485 71.5285C62.7806 71.1375 63.3027 70.5918 63.6654 69.943C64.028 69.2942 64.2194 68.5636 64.2213 67.8203C64.2232 67.077 64.0356 66.3455 63.6763 65.6948C63.3169 65.0442 62.7977 64.4958 62.1675 64.1016C62.784 61.8494 63.9324 59.7782 65.5162 58.0623C66.206 58.481 66.9981 58.7006 67.805 58.697C68.6118 58.6933 69.402 58.4665 70.0879 58.0417C70.7741 57.6172 71.3295 57.0111 71.6926 56.2906C72.0557 55.57 72.2124 54.7631 72.1453 53.959C74.3874 53.3067 76.7534 53.2025 79.0441 53.6552C79.1164 54.4003 79.3787 55.1143 79.8059 55.729C80.2331 56.3436 80.8109 56.8384 81.4841 57.1658C82.1572 57.4933 82.9031 57.6424 83.6504 57.5991C84.3977 57.5557 85.1214 57.3213 85.7521 56.9182C86.8744 57.8881 87.842 59.0236 88.6216 60.2855C89.1511 61.1408 89.5814 62.0299 89.9161 62.9389C89.1342 63.3214 88.4843 63.9284 88.0495 64.6823C87.6146 65.4362 87.4146 66.3028 87.475 67.171C87.5354 68.0393 87.8535 68.8697 88.3885 69.5562C88.9236 70.2426 89.6513 70.7538 90.4786 71.0243C89.9504 73.4845 88.7946 75.766 87.1234 77.6471C86.4181 77.0457 85.5402 76.6838 84.6161 76.6135C83.6919 76.5433 82.7694 76.7682 81.9813 77.256C81.1933 77.7438 80.5805 78.4692 80.2312 79.3277C79.882 80.1862 79.8143 81.1334 80.0381 82.0328Z" stroke="#CACACA" stroke-width="1.2" stroke-linejoin="round"/>
<path d="M64.3018 89.1233C64.3018 90.5302 63.7429 91.8795 62.748 92.8743C61.7532 93.8692 60.4039 94.428 58.997 94.428C57.5901 94.428 56.2409 93.8692 55.246 92.8743C54.2512 91.8795 53.6923 90.5302 53.6923 89.1233C53.6923 87.7164 54.2512 86.3671 55.246 85.3723C56.2409 84.3775 57.5901 83.8186 58.997 83.8186C60.4039 83.8186 61.7532 84.3775 62.748 85.3723C63.7429 86.3671 64.3018 87.7164 64.3018 89.1233Z" stroke="#CACACA" stroke-width="0.975603"/>
<path d="M61.0237 89.1236C61.0237 89.6612 60.8102 90.1768 60.43 90.557C60.0499 90.9371 59.5342 91.1507 58.9966 91.1507C58.459 91.1507 57.9434 90.9371 57.5632 90.557C57.1831 90.1768 56.9695 89.6612 56.9695 89.1236C56.9695 88.5859 57.1831 88.0703 57.5632 87.6902C57.9434 87.31 58.459 87.0964 58.9966 87.0964C59.5342 87.0964 60.0499 87.31 60.43 87.6902C60.8102 88.0703 61.0237 88.5859 61.0237 89.1236Z" fill="#CACACA" stroke="#CACACA" stroke-width="0.662744"/>
<path d="M61.6393 98.8488C59.9647 99.3016 58.2013 99.3132 56.5208 98.8824C56.6083 98.2888 56.5166 97.6826 56.2575 97.1414C55.9985 96.6002 55.5838 96.1485 55.0667 95.8443C54.5495 95.5401 53.9533 95.3971 53.3544 95.4336C52.7555 95.4701 52.1811 95.6845 51.7047 96.0494C51.2381 95.5546 50.823 95.0138 50.4656 94.4352C49.9128 93.5422 49.5164 92.5962 49.2701 91.6293L49.306 91.607C49.7418 91.3375 50.1017 90.9613 50.3518 90.514C50.6018 90.0667 50.7337 89.563 50.735 89.0506C50.7363 88.5381 50.607 88.0338 50.3593 87.5852C50.1116 87.1366 49.7536 86.7586 49.3192 86.4868C49.7441 84.9341 50.5359 83.5062 51.6277 82.3233C52.1033 82.6119 52.6494 82.7633 53.2057 82.7608C53.7619 82.7583 54.3067 82.6019 54.7796 82.309C55.2526 82.0164 55.6355 81.5986 55.8858 81.1018C56.1362 80.6051 56.2442 80.0487 56.198 79.4944C57.7437 79.0447 59.3748 78.9729 60.9541 79.285C61.0039 79.7986 61.1847 80.2909 61.4793 80.7146C61.7738 81.1384 62.1721 81.4795 62.6362 81.7052C63.1003 81.931 63.6145 82.0338 64.1297 82.0039C64.6449 81.974 65.1438 81.8124 65.5787 81.5345C66.3524 82.2032 67.0195 82.986 67.557 83.8559C67.9219 84.4456 68.2186 85.0586 68.4493 85.6853C67.9104 85.9489 67.4623 86.3674 67.1625 86.8872C66.8627 87.407 66.7248 88.0043 66.7664 88.6029C66.8081 89.2015 67.0274 89.774 67.3962 90.2473C67.7651 90.7205 68.2668 91.0729 68.8371 91.2594C68.4731 92.9555 67.6762 94.5284 66.524 95.8253C66.0378 95.4107 65.4326 95.1612 64.7955 95.1127C64.1584 95.0643 63.5223 95.2194 62.979 95.5557C62.4357 95.892 62.0133 96.3921 61.7725 96.9839C61.5317 97.5758 61.4851 98.2288 61.6393 98.8488Z" stroke="#CACACA" stroke-width="1.2" stroke-linejoin="round"/>
</svg>
