<svg width="104" height="104" viewBox="0 0 104 104" fill="none" xmlns="http://www.w3.org/2000/svg">
<path d="M40.9165 59.76L46.9644 44.012H49.2095L55.6548 59.76H53.2808L51.4438 54.9905H44.8589L43.1294 59.76H40.9165ZM45.4604 53.2932H50.7993L49.1558 48.9319C48.6545 47.607 48.2821 46.5185 48.0386 45.6663C47.8381 46.676 47.5552 47.6786 47.1899 48.6741L45.4604 53.2932ZM58.5543 59.76V44.012H60.6383V59.76H58.5543Z" fill="#1727FF"/>
<path d="M79.8115 5.62817C83.0593 5.62828 85.6924 8.26119 85.6924 11.509C85.6923 14.7568 83.0593 17.3898 79.8115 17.3899C76.8624 17.3899 74.4205 15.2188 73.9961 12.3879H67.4746V25.9299C67.4746 26.2612 67.2062 26.5303 66.875 26.5305C66.5436 26.5305 66.2754 26.2613 66.2754 25.9299V11.7883C66.2755 11.457 66.5437 11.1887 66.875 11.1887H73.9395C74.1057 8.08968 76.671 5.62818 79.8115 5.62817ZM79.8115 6.82837C77.2269 6.82838 75.1318 8.92271 75.1309 11.5071C75.1759 11.5912 75.2041 11.6862 75.2041 11.7883C75.2041 11.8683 75.1866 11.9442 75.1582 12.0139C75.4101 14.3615 77.397 16.1897 79.8115 16.1897C82.3965 16.1896 84.4921 14.094 84.4922 11.509C84.4922 8.92393 82.3966 6.82847 79.8115 6.82837ZM79.8672 8.19849C81.6528 8.19877 83.1004 9.64627 83.1006 11.4319C83.1004 13.1618 81.7416 14.5747 80.0332 14.6614L79.8672 14.6663C78.1373 14.6663 76.7246 13.3072 76.6377 11.5989L76.6328 11.4319C76.633 9.6461 78.0814 8.19849 79.8672 8.19849ZM79.8672 9.39868C78.7441 9.39868 77.8332 10.3088 77.833 11.4319C77.8332 12.5549 78.7441 13.4661 79.8672 13.4661C80.99 13.4658 81.9002 12.5548 81.9004 11.4319C81.9002 10.309 80.99 9.39896 79.8672 9.39868Z" fill="#1727FF"/>
<path d="M79.8115 96.1514C83.0593 96.1513 85.6924 93.5184 85.6924 90.2705C85.6921 87.0229 83.0592 84.3898 79.8115 84.3896C76.8628 84.3897 74.421 86.5603 73.9961 89.3906H67.4746V75.8486C67.4744 75.5176 67.206 75.2483 66.875 75.248C66.5438 75.248 66.2756 75.5175 66.2754 75.8486V89.9902C66.2754 90.3216 66.5436 90.5898 66.875 90.5898H73.9395C74.1051 93.6895 76.6706 96.1514 79.8115 96.1514ZM79.8115 94.9512C77.2269 94.9512 75.1317 92.8569 75.1309 90.2725C75.176 90.1882 75.2041 90.0926 75.2041 89.9902C75.204 89.9105 75.1865 89.8351 75.1582 89.7656C75.4102 87.4182 77.3971 85.5899 79.8115 85.5898C82.3965 85.5899 84.4919 87.6856 84.4922 90.2705C84.4922 92.8556 82.3966 94.9511 79.8115 94.9512ZM80.0332 93.5654C81.7417 93.4787 83.1006 92.066 83.1006 90.3359C83.1004 88.5504 81.6528 87.1028 79.8672 87.1025C78.0814 87.1025 76.633 88.5502 76.6328 90.3359L76.6377 90.5029C76.7244 92.2114 78.1372 93.5703 79.8672 93.5703L80.0332 93.5654ZM79.8672 92.3701C78.744 92.3701 77.833 91.4591 77.833 90.3359C77.8332 89.2129 78.7441 88.3027 79.8672 88.3027C80.99 88.303 81.9002 89.2131 81.9004 90.3359C81.9004 91.459 80.9901 92.3698 79.8672 92.3701Z" fill="#1727FF"/>
<path d="M23.2166 5.62817C19.9688 5.62838 17.3357 8.26125 17.3357 11.509C17.3358 14.7567 19.9689 17.3897 23.2166 17.3899C26.1657 17.3899 28.6076 15.2188 29.032 12.3879H35.5554V25.9299C35.5554 26.2613 35.8237 26.5305 36.155 26.5305C36.4863 26.5304 36.7546 26.2612 36.7546 25.9299V11.7883C36.7545 11.4571 36.4863 11.1888 36.155 11.1887H29.0896C28.9234 8.08966 26.3571 5.62818 23.2166 5.62817ZM23.2166 6.82837C25.8017 6.82838 27.8972 8.92387 27.8972 11.509V11.51C27.8531 11.5935 27.826 11.6873 27.8259 11.7883C27.8259 11.8683 27.8425 11.9442 27.8708 12.0139C27.619 14.3615 25.6311 16.1897 23.2166 16.1897C20.6316 16.1895 18.536 14.094 18.5359 11.509C18.5359 8.92399 20.6316 6.82858 23.2166 6.82837ZM23.2185 8.27466C21.4328 8.27466 19.9844 9.72239 19.9841 11.5081L19.989 11.675C20.0758 13.3835 21.4885 14.7424 23.2185 14.7424L23.3845 14.7375C25.093 14.6509 26.4519 13.2381 26.4519 11.5081C26.4516 9.72257 25.004 8.27494 23.2185 8.27466ZM23.2185 9.47485C24.3413 9.47513 25.2514 10.3853 25.2517 11.5081C25.2517 12.6311 24.3415 13.542 23.2185 13.5422C22.0953 13.5422 21.1843 12.6312 21.1843 11.5081C21.1846 10.3851 22.0955 9.47485 23.2185 9.47485Z" fill="#1727FF"/>
<path d="M57.8298 6.78247C57.8296 3.53474 55.1968 0.901621 51.949 0.901611C48.7013 0.901729 46.0683 3.53481 46.0681 6.78247C46.0681 9.73158 48.2392 12.1735 51.0701 12.5979L51.0701 19.7209C51.0702 20.0522 51.3384 20.3206 51.6697 20.3206C52.0009 20.3205 52.2692 20.0522 52.2693 19.7209L52.2693 12.6555C55.3684 12.4893 57.8298 9.92299 57.8298 6.78247ZM56.6296 6.78247C56.6296 9.36763 54.5341 11.4631 51.949 11.4631L51.948 11.4631C51.8645 11.419 51.7707 11.3919 51.6697 11.3918C51.5898 11.3918 51.5138 11.4084 51.4441 11.4368C49.0965 11.1849 47.2683 9.19699 47.2683 6.78247C47.2685 4.19755 49.364 2.10192 51.949 2.10181C54.534 2.10182 56.6294 4.19748 56.6296 6.78247ZM55.1833 6.78442C55.1833 4.99869 53.7356 3.55037 51.95 3.55005L51.783 3.55493C50.0745 3.64168 48.7156 5.05439 48.7156 6.78442L48.7205 6.95044C48.8071 8.65897 50.2199 10.0178 51.95 10.0178C53.7354 10.0175 55.1831 8.56992 55.1833 6.78442ZM53.9832 6.78442C53.9829 7.90718 53.0727 8.81731 51.95 8.81763C50.8269 8.81763 49.9161 7.90738 49.9158 6.78442C49.9158 5.66123 50.8268 4.75024 51.95 4.75024C53.0729 4.75056 53.9832 5.66143 53.9832 6.78442Z" fill="#1727FF"/>
<path d="M10.1003 45.7498C6.85261 45.75 4.21949 48.3828 4.21948 51.6306C4.2196 54.8783 6.85268 57.5113 10.1003 57.5115C13.0495 57.5115 15.4914 55.3404 15.9158 52.5095L23.0388 52.5095C23.3701 52.5094 23.6384 52.2412 23.6384 51.9099C23.6383 51.5787 23.37 51.3104 23.0388 51.3103L15.9734 51.3103C15.8072 48.2112 13.2409 45.7498 10.1003 45.7498ZM10.1003 46.95C12.6855 46.95 14.781 49.0455 14.781 51.6306L14.781 51.6316C14.7369 51.715 14.7097 51.8089 14.7097 51.9099C14.7097 51.9898 14.7263 52.0658 14.7546 52.1355C14.5028 54.4831 12.5149 56.3113 10.1003 56.3113C7.51542 56.3111 5.4198 54.2156 5.41968 51.6306C5.41969 49.0456 7.51535 46.9502 10.1003 46.95ZM10.1023 48.3962C8.31656 48.3962 6.86824 49.844 6.86792 51.6296L6.8728 51.7966C6.95955 53.5051 8.37227 54.864 10.1023 54.864L10.2683 54.8591C11.9768 54.7724 13.3357 53.3597 13.3357 51.6296C13.3354 49.8441 11.8878 48.3965 10.1023 48.3962ZM10.1023 49.5964C11.2251 49.5967 12.1352 50.5069 12.1355 51.6296C12.1355 52.7527 11.2252 53.6635 10.1023 53.6638C8.9791 53.6638 8.06812 52.7528 8.06812 51.6296C8.06843 50.5067 8.9793 49.5964 10.1023 49.5964Z" fill="#1727FF"/>
<path d="M57.8298 96.4792C57.8296 99.727 55.1968 102.36 51.949 102.36C48.7013 102.36 46.0683 99.7269 46.0681 96.4792C46.0681 93.5301 48.2392 91.0882 51.0701 90.6638L51.0701 83.5408C51.0702 83.2095 51.3384 82.9412 51.6697 82.9412C52.0009 82.9413 52.2692 83.2095 52.2693 83.5408L52.2693 90.6062C55.3684 90.7724 57.8298 93.3387 57.8298 96.4792ZM56.6296 96.4792C56.6296 93.8941 54.5341 91.7986 51.949 91.7986L51.948 91.7986C51.8645 91.8427 51.7707 91.8698 51.6697 91.8699C51.5898 91.8699 51.5138 91.8533 51.4441 91.825C49.0965 92.0768 47.2683 94.0647 47.2683 96.4792C47.2685 99.0642 49.364 101.16 51.949 101.16C54.534 101.16 56.6294 99.0642 56.6296 96.4792ZM55.1833 96.4773C55.1833 98.263 53.7356 99.7114 51.95 99.7117L51.783 99.7068C50.0745 99.62 48.7156 98.2073 48.7156 96.4773L48.7205 96.3113C48.8071 94.6028 50.2199 93.2439 51.95 93.2439C53.7354 93.2442 55.1831 94.6918 55.1833 96.4773ZM53.9832 96.4773C53.9829 95.3545 53.0727 94.4444 51.95 94.4441C50.8269 94.4441 49.9161 95.3543 49.9158 96.4773C49.9158 97.6005 50.8268 98.5115 51.95 98.5115C53.0729 98.5112 53.9832 97.6003 53.9832 96.4773Z" fill="#1727FF"/>
<path d="M93.7976 45.7498C97.0453 45.75 99.6785 48.3828 99.6785 51.6306C99.6783 54.8783 97.0453 57.5113 93.7976 57.5115C90.8485 57.5115 88.4065 55.3404 87.9822 52.5095L80.8591 52.5095C80.5279 52.5094 80.2595 52.2412 80.2595 51.9099C80.2596 51.5787 80.5279 51.3104 80.8591 51.3103L87.9246 51.3103C88.0908 48.2112 90.6571 45.7498 93.7976 45.7498ZM93.7976 46.95C91.2124 46.95 89.117 49.0455 89.1169 51.6306L89.1169 51.6316C89.161 51.715 89.1882 51.8089 89.1882 51.9099C89.1882 51.9898 89.1717 52.0658 89.1433 52.1355C89.3952 54.4831 91.3831 56.3113 93.7976 56.3113C96.3825 56.3111 98.4782 54.2156 98.4783 51.6306C98.4783 49.0456 96.3826 46.9502 93.7976 46.95ZM93.7957 48.3962C95.5814 48.3962 97.0297 49.844 97.03 51.6296L97.0251 51.7966C96.9384 53.5051 95.5257 54.864 93.7957 54.864L93.6296 54.8591C91.9211 54.7724 90.5623 53.3597 90.5623 51.6296C90.5626 49.8441 92.0102 48.3965 93.7957 48.3962ZM93.7957 49.5964C92.6729 49.5967 91.7628 50.5069 91.7625 51.6296C91.7625 52.7527 92.6727 53.6635 93.7957 53.6638C94.9188 53.6638 95.8298 52.7528 95.8298 51.6296C95.8295 50.5067 94.9186 49.5964 93.7957 49.5964Z" fill="#1727FF"/>
<path d="M23.2168 96.1514C19.9691 96.1512 17.3359 93.5183 17.3359 90.2705C17.3362 87.0229 19.9692 84.3899 23.2168 84.3896C26.1655 84.3897 28.6073 86.5603 29.0322 89.3906H35.5557V75.8486C35.5559 75.5175 35.8241 75.248 36.1553 75.248C36.4864 75.2482 36.7546 75.5175 36.7549 75.8486V89.9902C36.7549 90.3215 36.4866 90.5897 36.1553 90.5898H29.0898C28.9242 93.6895 26.3577 96.1514 23.2168 96.1514ZM23.2168 94.9512C25.802 94.9512 27.8975 92.8557 27.8975 90.2705V90.2695C27.8533 90.186 27.8262 90.0914 27.8262 89.9902C27.8262 89.9106 27.8429 89.8351 27.8711 89.7656C27.6191 87.4181 25.6312 85.5899 23.2168 85.5898C20.632 85.5901 18.5364 87.6857 18.5361 90.2705C18.5361 92.8555 20.6318 94.951 23.2168 94.9512ZM23.2656 93.5703C21.5356 93.5703 20.1229 92.2114 20.0361 90.5029L20.0312 90.3359C20.0315 88.5502 21.4798 87.1025 23.2656 87.1025C25.0512 87.1028 26.4988 88.5504 26.499 90.3359C26.499 92.066 25.1402 93.4787 23.4316 93.5654L23.2656 93.5703ZM23.2656 92.3701C24.3886 92.3698 25.2988 91.459 25.2988 90.3359C25.2986 89.2131 24.3884 88.303 23.2656 88.3027C22.1426 88.3027 21.2317 89.2129 21.2314 90.3359C21.2314 91.4591 22.1424 92.3701 23.2656 92.3701Z" fill="#1727FF"/>
<path d="M99.9978 23.2229C99.9975 19.9752 97.3647 17.3421 94.1169 17.342C90.8692 17.342 88.2363 19.9752 88.2361 23.2229C88.2361 26.1714 90.4061 28.6132 93.2361 29.0383L93.2361 35.5608L83.2937 35.5608C82.9625 35.5608 82.6943 35.8292 82.6941 36.1604C82.6941 36.4918 82.9623 36.76 83.2937 36.76L93.8357 36.76C94.1671 36.76 94.4353 36.4918 94.4353 36.1604L94.4353 29.0959C97.5352 28.9306 99.9978 26.364 99.9978 23.2229ZM98.7976 23.2229C98.7976 25.8081 96.7021 27.9036 94.1169 27.9036L94.115 27.9036C94.0313 27.8592 93.9371 27.8313 93.8357 27.8313C93.756 27.8313 93.6806 27.849 93.6111 27.8772C91.2638 27.625 89.4363 25.6372 89.4363 23.2229C89.4365 20.6379 91.5319 18.5422 94.1169 18.5422C96.7019 18.5422 98.7973 20.638 98.7976 23.2229ZM97.3357 23.2014C97.3353 21.416 95.8878 19.9682 94.1023 19.968C92.3166 19.968 90.8684 21.4159 90.8679 23.2014L90.8728 23.3684C90.9596 25.0769 92.3723 26.4358 94.1023 26.4358L94.2683 26.4309C95.9769 26.3443 97.3357 24.9315 97.3357 23.2014ZM94.1023 25.2356C92.9791 25.2356 92.0681 24.3246 92.0681 23.2014C92.0686 22.0786 92.9794 21.1682 94.1023 21.1682C95.2251 21.1684 96.1351 22.0787 96.1355 23.2014C96.1355 24.3245 95.2253 25.2354 94.1023 25.2356Z" fill="#1727FF"/>
<path d="M4.21948 23.2229C4.21975 19.9752 6.85259 17.3421 10.1003 17.342C13.3481 17.342 15.9809 19.9752 15.9812 23.2229C15.9812 26.1714 13.8112 28.6132 10.9812 29.0383L10.9812 35.5608L20.9236 35.5608C21.2548 35.5608 21.523 35.8292 21.5232 36.1604C21.5232 36.4918 21.255 36.76 20.9236 36.76L10.3816 36.76C10.0502 36.76 9.78198 36.4918 9.78198 36.1604L9.78198 29.0959C6.68211 28.9306 4.21949 26.364 4.21948 23.2229ZM5.41968 23.2229C5.41969 25.8081 7.51518 27.9036 10.1003 27.9036L10.1023 27.9036C10.186 27.8592 10.2802 27.8313 10.3816 27.8313C10.4613 27.8313 10.5366 27.849 10.6062 27.8772C12.9534 27.625 14.781 25.6372 14.781 23.2229C14.7807 20.6379 12.6854 18.5422 10.1003 18.5422C7.51534 18.5422 5.41994 20.638 5.41968 23.2229ZM6.88159 23.2014C6.88203 21.416 8.32947 19.9682 10.115 19.968C11.9007 19.968 13.3489 21.4159 13.3494 23.2014L13.3445 23.3684C13.2577 25.0769 11.845 26.4358 10.115 26.4358L9.94897 26.4309C8.24036 26.3443 6.88159 24.9315 6.88159 23.2014ZM10.115 25.2356C11.2382 25.2356 12.1492 24.3246 12.1492 23.2014C12.1487 22.0786 11.2379 21.1682 10.115 21.1682C8.99222 21.1684 8.08222 22.0787 8.08179 23.2014C8.08179 24.3245 8.99195 25.2354 10.115 25.2356Z" fill="#1727FF"/>
<path d="M99.9978 80.2971C99.9978 83.545 97.3649 86.178 94.1169 86.178C90.869 86.178 88.2361 83.545 88.2361 80.2971C88.2361 77.3486 90.406 74.9068 93.2361 74.4817L93.2361 67.9592L83.2937 67.9592C82.9623 67.9592 82.6941 67.691 82.6941 67.3596C82.6942 67.0284 82.9624 66.76 83.2937 66.76L93.8357 66.76C94.167 66.76 94.4352 67.0284 94.4353 67.3596L94.4353 74.425C97.5352 74.5904 99.9978 77.156 99.9978 80.2971ZM98.7976 80.2971C98.7976 77.712 96.7021 75.6165 94.1169 75.6165L94.116 75.6165C94.032 75.6612 93.9375 75.6887 93.8357 75.6887C93.756 75.6887 93.6806 75.672 93.6111 75.6438C91.2639 75.896 89.4363 77.8829 89.4363 80.2971C89.4363 82.8823 91.5318 84.9778 94.1169 84.9778C96.7021 84.9778 98.7976 82.8823 98.7976 80.2971ZM97.3972 80.3391C97.3972 82.0692 96.0384 83.4819 94.3298 83.5686L94.1638 83.5735C92.4338 83.5735 91.0211 82.2146 90.9343 80.5061L90.9294 80.3391C90.9297 78.5534 92.378 77.1057 94.1638 77.1057C95.9494 77.106 97.397 78.5535 97.3972 80.3391ZM96.197 80.3391C96.1968 79.2163 95.2866 78.3062 94.1638 78.3059C93.0408 78.3059 92.1299 79.2161 92.1296 80.3391C92.1296 81.4623 93.0406 82.3733 94.1638 82.3733C95.2868 82.373 96.197 81.4621 96.197 80.3391Z" fill="#1727FF"/>
<path d="M4.21948 80.2971C4.21948 83.545 6.85243 86.178 10.1003 86.178C13.3483 86.178 15.9812 83.545 15.9812 80.2971C15.9812 77.3486 13.8113 74.9068 10.9812 74.4817L10.9812 67.9592L20.9236 67.9592C21.255 67.9592 21.5232 67.691 21.5232 67.3596C21.523 67.0284 21.2549 66.76 20.9236 66.76L10.3816 66.76C10.0503 66.76 9.78213 67.0284 9.78198 67.3596L9.78198 74.425C6.68212 74.5904 4.21949 77.156 4.21948 80.2971ZM5.41968 80.2971C5.41969 77.712 7.51518 75.6165 10.1003 75.6165L10.1013 75.6165C10.1853 75.6612 10.2798 75.6887 10.3816 75.6887C10.4613 75.6887 10.5367 75.672 10.6062 75.6438C12.9534 75.896 14.781 77.8829 14.781 80.2971C14.781 82.8823 12.6855 84.9778 10.1003 84.9778C7.51517 84.9778 5.41968 82.8823 5.41968 80.2971ZM6.82007 80.3391C6.82007 82.0692 8.17892 83.4819 9.88745 83.5686L10.0535 83.5735C11.7835 83.5735 13.1962 82.2146 13.283 80.5061L13.2878 80.3391C13.2876 78.5534 11.8393 77.1057 10.0535 77.1057C8.2679 77.106 6.82028 78.5535 6.82007 80.3391ZM8.02026 80.3391C8.02048 79.2163 8.93064 78.3062 10.0535 78.3059C11.1765 78.3059 12.0874 79.2161 12.0876 80.3391C12.0876 81.4623 11.1767 82.3733 10.0535 82.3733C8.93051 82.373 8.02026 81.4621 8.02026 80.3391Z" fill="#1727FF"/>
<path d="M50.363 25.613C51.3685 25.0326 52.6066 25.0326 53.6121 25.613L73.8191 37.2791C74.8246 37.8596 75.4441 38.9324 75.4441 40.0935V63.4265C75.4441 64.5876 74.8246 65.6604 73.8191 66.241L53.613 77.907C52.6075 78.4875 51.3676 78.4875 50.3621 77.907L30.156 66.241C29.1505 65.6604 28.531 64.5876 28.531 63.4265V40.0935C28.531 38.9324 29.1505 37.8596 30.156 37.2791L50.363 25.613Z" stroke="#1727FF" stroke-width="1.5"/>
<path d="M50.3625 28.8557C51.3681 28.2752 52.607 28.2752 53.6125 28.8557L71.011 38.9006C72.0165 39.4812 72.636 40.554 72.636 41.7151V61.8049C72.636 62.966 72.0165 64.0388 71.011 64.6194L53.6125 74.6643C52.607 75.2449 51.3681 75.2449 50.3625 74.6643L32.9641 64.6194C31.9586 64.0388 31.3391 62.966 31.3391 61.8049V41.7151C31.3391 40.554 31.9586 39.4812 32.9641 38.9006L50.3625 28.8557Z" stroke="#1727FF" stroke-width="1.5"/>
</svg>
