<svg width="106" height="104" viewBox="0 0 106 104" fill="none" xmlns="http://www.w3.org/2000/svg">
<path fill-rule="evenodd" clip-rule="evenodd" d="M20.6235 51.7599C20.6235 33.9074 35.0959 19.4351 52.9483 19.4351C70.8008 19.4351 85.2731 33.9074 85.2731 51.7599C85.2731 69.6123 70.8008 84.0847 52.9483 84.0847C35.0959 84.0847 20.6235 69.6123 20.6235 51.7599Z" stroke="#1727FF" stroke-width="1.8" stroke-linecap="round" stroke-linejoin="round"/>
<path fill-rule="evenodd" clip-rule="evenodd" d="M24.1211 51.7599C24.1211 35.839 37.0275 22.9326 52.9483 22.9326C68.8692 22.9326 81.7756 35.839 81.7756 51.7599C81.7756 67.6807 68.8692 80.5871 52.9483 80.5871C37.0275 80.5871 24.1211 67.6807 24.1211 51.7599Z" stroke="#1727FF" stroke-linecap="round" stroke-linejoin="round"/>
<path d="M59.6736 45.2013C57.9166 45.2013 56.2315 44.5033 54.989 43.2609C53.7466 42.0185 53.0486 40.3334 53.0486 38.5763M53.0486 37.4722V69.493M70.7153 62.868C70.7153 61.1109 70.0173 59.4258 68.7749 58.1834C67.5324 56.941 65.8473 56.243 64.0903 56.243M35.382 62.868C35.382 61.1109 36.0799 59.4258 37.3224 58.1834C38.5648 56.941 40.2499 56.243 42.007 56.243" stroke="#1727FF" stroke-width="1.5" stroke-linecap="round" stroke-linejoin="round"/>
<path d="M61.882 69.493C61.882 70.6644 61.4166 71.7878 60.5884 72.6161C59.7601 73.4443 58.6367 73.9097 57.4653 73.9097C56.2939 73.9097 55.1705 73.4443 54.3422 72.6161C53.514 71.7878 53.0486 70.6644 53.0486 69.493C53.0551 70.0935 52.9391 70.6889 52.7076 71.243C52.4762 71.7971 52.1341 72.2982 51.7025 72.7157C51.2708 73.1331 50.7585 73.4581 50.197 73.6709C49.6354 73.8836 49.0364 73.9796 48.4365 73.953C47.8366 73.9264 47.2484 73.7777 46.7079 73.5161C46.1674 73.2544 45.6859 72.8853 45.2929 72.4313C44.8999 71.9773 44.6036 71.4479 44.4221 70.8755C44.2406 70.3031 44.1778 69.6997 44.2374 69.1021C43.2378 69.4595 42.1671 69.5715 41.1152 69.4286C40.0634 69.2857 39.0613 68.8922 38.1933 68.2811C37.3253 67.6701 36.6168 66.8594 36.1276 65.9173C35.6384 64.9753 35.3826 63.9295 35.382 62.868C35.382 61.5982 35.7463 60.4167 36.3669 59.4075C35.2796 58.7582 34.3449 57.8826 33.626 56.84C32.9071 55.7975 32.421 54.6125 32.2006 53.3654C31.9802 52.1184 32.0308 50.8385 32.3488 49.6127C32.6668 48.3869 33.2449 47.2439 34.0437 46.2613C33.4725 45.2541 33.1752 44.1147 33.1815 42.9568C33.1878 41.7988 33.4976 40.6628 34.0798 39.6618C34.662 38.6609 35.4965 37.8301 36.4999 37.2521C37.5033 36.6742 38.6407 36.3694 39.7986 36.368C40.5936 36.368 41.3511 36.516 42.0555 36.7721C42.2241 35.3729 42.9218 34.0913 44.0054 33.1903C45.0891 32.2893 46.4765 31.8371 47.8829 31.9267C49.2894 32.0163 50.6082 32.6407 51.5688 33.6719C52.5294 34.7031 53.0589 36.0629 53.0486 37.4722C53.0602 36.0766 53.5998 34.7373 54.559 33.7235C55.5181 32.7098 56.8256 32.0969 58.2183 32.0082C59.6111 31.9195 60.9858 32.3616 62.0658 33.2454C63.1458 34.1293 63.851 35.3893 64.0395 36.7721C64.7633 36.507 65.5278 36.3703 66.2986 36.368C67.4569 36.3691 68.5947 36.6739 69.5984 37.252C70.6021 37.83 71.4367 38.6611 72.019 39.6624C72.6014 40.6637 72.911 41.8001 72.917 42.9584C72.9231 44.1166 72.6254 45.2562 72.0536 46.2635C72.8515 47.2462 73.4288 48.389 73.7462 49.6144C74.0636 50.8398 74.1138 52.1192 73.8932 53.3657C73.6726 54.6122 73.1865 55.7966 72.4679 56.8387C71.7493 57.8808 70.8149 58.7562 69.7282 59.4053C70.3509 60.4145 70.7153 61.5982 70.7153 62.868C70.7146 63.9295 70.4589 64.9753 69.9697 65.9173C69.4804 66.8594 68.772 67.6701 67.904 68.2811C67.036 68.8922 66.0339 69.2857 64.982 69.4286C63.9302 69.5715 62.8594 69.4595 61.8599 69.1021C61.8731 69.2302 61.8805 69.3605 61.882 69.493Z" stroke="#1727FF" stroke-width="1.5" stroke-linecap="round" stroke-linejoin="round"/>
<path d="M46.5869 46.7297C46.4739 44.4994 44.6295 42.7259 42.3711 42.7258L42.1543 42.7307C39.924 42.8437 38.1506 44.6882 38.1504 46.9465L38.1553 47.1643C38.2548 49.124 39.6911 50.7301 41.5703 51.0911L41.5703 56.2336C41.5704 56.5648 41.8388 56.833 42.1699 56.8333C42.5012 56.8333 42.7694 56.5649 42.7695 56.2336L42.7695 51.1487C44.9139 50.9478 46.5926 49.1433 46.5928 46.9465L46.5869 46.7297ZM45.3926 46.9465C45.3924 48.615 44.0395 49.9679 42.3711 49.968C40.7028 49.9678 39.3508 48.6149 39.3506 46.9465C39.3508 45.2782 40.7028 43.9262 42.3711 43.926C44.0395 43.9261 45.3924 45.2782 45.3926 46.9465ZM44.6934 46.9475C44.6934 45.6656 43.654 44.6262 42.3721 44.6262C41.0901 44.6262 40.0508 45.6656 40.0508 46.9475C40.0509 48.2294 41.0902 49.2688 42.3721 49.2688C43.654 49.2688 44.6933 48.2294 44.6934 46.9475Z" fill="#1727FF"/>
<path d="M63.1527 66.4641C65.3831 66.3511 67.1565 64.5067 67.1566 62.2483L67.1517 62.0315C67.0387 59.8012 65.1943 58.0278 62.9359 58.0276L62.7181 58.0325C60.7585 58.132 59.1523 59.5683 58.7914 61.4475H53.6488C53.3177 61.4476 53.0494 61.716 53.0492 62.0471C53.0492 62.3784 53.3175 62.6466 53.6488 62.6467H58.7338C58.9347 64.7911 60.7391 66.4698 62.9359 66.47L63.1527 66.4641ZM62.9359 65.2698C61.2675 65.2696 59.9145 63.9167 59.9144 62.2483C59.9146 60.58 61.2676 59.2279 62.9359 59.2278C64.6042 59.228 65.9562 60.58 65.9564 62.2483C65.9563 63.9167 64.6043 65.2696 62.9359 65.2698ZM62.9349 64.5706C64.2169 64.5706 65.2562 63.5312 65.2562 62.2493C65.2562 60.9673 64.2169 59.928 62.9349 59.928C61.6531 59.9281 60.6136 60.9674 60.6136 62.2493C60.6136 63.5312 61.6531 64.5705 62.9349 64.5706Z" fill="#1727FF"/>
<path d="M67.967 44.8933C67.854 42.663 66.0097 40.8895 63.7512 40.8894L63.5344 40.8943C61.3041 41.0073 59.5307 42.8518 59.5305 45.1101L59.5354 45.3279C59.645 47.4861 61.3761 49.2165 63.5344 49.3259L63.7512 49.3318C66.0824 49.3317 67.9727 47.4413 67.9729 45.1101L67.967 44.8933ZM66.7727 45.1101C66.7725 46.7785 65.4197 48.1315 63.7512 48.1316C62.0829 48.1314 60.7309 46.7784 60.7307 45.1101C60.7309 43.4418 62.0829 42.0898 63.7512 42.0896C65.4196 42.0897 66.7725 43.4417 66.7727 45.1101ZM66.0735 45.1111C66.0735 43.8291 65.0341 42.7898 63.7522 42.7898C62.4703 42.7898 61.4309 43.8291 61.4309 45.1111C61.431 46.393 62.4703 47.4324 63.7522 47.4324C65.0341 47.4324 66.0734 46.393 66.0735 45.1111Z" fill="#1727FF"/>
<path d="M6.89964 91.7539H24.5019L33.8639 80.2668M6.89964 91.7539C7.50946 91.1441 7.85206 90.317 7.85206 89.4545C7.85206 88.5921 7.50946 87.765 6.89964 87.1552C6.28981 86.5454 5.46272 86.2028 4.6003 86.2028C3.73788 86.2028 2.91078 86.5454 2.30095 87.1552C1.69113 87.765 1.34855 88.5921 1.34855 89.4545C1.34855 90.317 1.69113 91.1441 2.30095 91.7539C2.91078 92.3637 3.73788 92.7063 4.6003 92.7063C5.46272 92.7063 6.28981 92.3637 6.89964 91.7539Z" stroke="#1727FF" stroke-width="1.8" stroke-linecap="round" stroke-linejoin="round"/>
<path d="M6.89964 9.21925L24.5019 9.21925L33.8639 20.7063M6.89964 9.21925C7.50946 9.82907 7.85206 10.6562 7.85206 11.5186C7.85206 12.381 7.50946 13.2081 6.89964 13.8179C6.28981 14.4278 5.46272 14.7703 4.6003 14.7703C3.73788 14.7703 2.91078 14.4278 2.30095 13.8179C1.69113 13.2081 1.34855 12.381 1.34855 11.5186C1.34855 10.6562 1.69113 9.82907 2.30095 9.21925C2.91078 8.60943 3.73788 8.26683 4.6003 8.26683C5.46272 8.26683 6.28981 8.60943 6.89964 9.21925Z" stroke="#1727FF" stroke-width="1.8" stroke-linecap="round" stroke-linejoin="round"/>
<path d="M7.85181 50.4868C7.85181 49.6244 7.39534 48.6834 6.89939 48.1874C6.28956 47.5776 5.46247 47.235 4.60005 47.235C3.73763 47.235 2.91052 47.5776 2.3007 48.1874C1.69088 48.7973 1.34829 49.6244 1.34829 50.4868C1.34829 51.3492 1.69088 52.1763 2.3007 52.7861C2.91052 53.3959 3.73763 53.7385 4.60005 53.7385C5.46247 53.7385 6.28956 53.3959 6.89939 52.7861C7.50921 52.1763 7.85181 51.3492 7.85181 50.4868ZM7.85181 50.4868H20.501" stroke="#1727FF" stroke-width="1.8" stroke-linecap="round" stroke-linejoin="round"/>
<path d="M98.5976 91.7536H80.9953L71.6333 80.2666M98.5976 91.7536C97.9877 91.1438 97.6451 90.3167 97.6451 89.4543C97.6451 88.5919 97.9877 87.7648 98.5976 87.155C99.2074 86.5451 100.034 86.2026 100.897 86.2026C101.759 86.2026 102.586 86.5451 103.196 87.155C103.806 87.7648 104.149 88.5919 104.149 89.4543C104.149 90.3167 103.806 91.1438 103.196 91.7536C102.586 92.3635 101.759 92.7061 100.897 92.7061C100.034 92.7061 99.2074 92.3635 98.5976 91.7536Z" stroke="#1727FF" stroke-width="1.8" stroke-linecap="round" stroke-linejoin="round"/>
<path d="M98.5976 9.21901L80.9953 9.21901L71.6333 20.7061M98.5976 9.21901C97.9877 9.82883 97.6451 10.6559 97.6451 11.5184C97.6451 12.3808 97.9877 13.2079 98.5976 13.8177C99.2074 14.4275 100.034 14.7701 100.897 14.7701C101.759 14.7701 102.586 14.4275 103.196 13.8177C103.806 13.2079 104.149 12.3808 104.149 11.5184C104.149 10.6559 103.806 9.82883 103.196 9.21901C102.586 8.60918 101.759 8.26659 100.897 8.26659C100.034 8.26659 99.2074 8.60918 98.5976 9.21901Z" stroke="#1727FF" stroke-width="1.8" stroke-linecap="round" stroke-linejoin="round"/>
<path d="M97.6453 50.4863C97.6453 49.6239 98.1017 48.6829 98.5977 48.1869C99.2075 47.5771 100.035 47.2345 100.897 47.2345C101.759 47.2345 102.587 47.5771 103.196 48.1869C103.806 48.7968 104.149 49.6239 104.149 50.4863C104.149 51.3487 103.806 52.1758 103.196 52.7856C102.587 53.3954 101.759 53.738 100.897 53.738C100.035 53.738 99.2075 53.3954 98.5977 52.7856C97.9879 52.1758 97.6453 51.3487 97.6453 50.4863ZM97.6453 50.4863H84.9961" stroke="#1727FF" stroke-width="1.8" stroke-linecap="round" stroke-linejoin="round"/>
</svg>
