<svg width="87" height="86" viewBox="0 0 87 86" fill="none" xmlns="http://www.w3.org/2000/svg">
<path d="M71.7912 17.3616V13.9238C71.7912 9.50555 68.2095 5.92383 63.7912 5.92383H8.875C4.45672 5.92383 0.875 9.50555 0.875 13.9238V74.9272C0.875 79.3455 4.45673 82.9272 8.875 82.9272H66.6562M71.7912 15.4319V47.9528" stroke="#1727FF" stroke-width="1.5"/>
<path d="M71.7912 17.3616V13.9238C71.7912 9.50555 68.2095 5.92383 63.7912 5.92383H8.875C4.45672 5.92383 0.875 9.50555 0.875 13.9238V74.9272C0.875 79.3455 4.45673 82.9272 8.875 82.9272H66.6562M71.7912 15.4319V47.9528" stroke="#1727FF" stroke-width="1.5"/>
<path d="M67.8116 49.1107V14.251C67.8116 12.0418 66.0207 10.251 63.8116 10.251H8.85449C6.64535 10.251 4.85449 12.0418 4.85449 14.251V74.8052C4.85449 77.0143 6.64536 78.8052 8.85449 78.8052H61.97" stroke="#1727FF"/>
<rect x="11.8672" y="51.4072" width="15.2803" height="1" rx="0.5" stroke="#1727FF"/>
<rect x="11.8662" y="57.4072" width="28.6523" height="1" rx="0.5" stroke="#1727FF"/>
<rect x="11.8662" y="63.4072" width="28.6523" height="1" rx="0.5" stroke="#1727FF"/>
<rect x="11.8672" y="69.4072" width="15.2803" height="1" rx="0.5" stroke="#1727FF"/>
<path fill-rule="evenodd" clip-rule="evenodd" d="M11.3662 29.8105C11.3662 22.5262 17.2713 16.6211 24.5557 16.6211C31.84 16.6211 37.7451 22.5262 37.7451 29.8105C37.7451 37.0949 31.84 43 24.5557 43C17.2713 43 11.3662 37.0949 11.3662 29.8105Z" stroke="#1727FF" stroke-width="1.5" stroke-linecap="round" stroke-linejoin="round"/>
<path d="M27.6019 26.9976H29.185C29.185 24.752 27.0043 23.7277 25.2273 23.4918V21.8525H23.6442V23.4918C21.8672 23.7277 19.6865 24.752 19.6865 26.9976C19.6865 29.1395 21.7968 30.2532 23.6442 30.5041V34.438C22.4981 34.2394 21.2696 33.6275 21.2696 32.5383H19.6865C19.6865 34.5876 21.606 35.7987 23.6442 36.0496V37.6833H25.2273V36.0449C27.0043 35.809 29.185 34.7839 29.185 32.5383C29.185 30.2927 27.0043 29.2685 25.2273 29.0326V25.0979C26.2801 25.287 27.6019 25.8427 27.6019 26.9976ZM21.2696 26.9976C21.2696 25.8427 22.5915 25.287 23.6442 25.0979V28.8965C22.559 28.6962 21.2696 28.1033 21.2696 26.9976ZM27.6019 32.5383C27.6019 33.6932 26.2801 34.2489 25.2273 34.438V30.6386C26.2801 30.8278 27.6019 31.3835 27.6019 32.5383Z" fill="#1727FF"/>
<path d="M86.124 53.3296V65.2778C86.0018 67.8563 85.1182 71.9873 82.8555 75.9116C80.6232 79.7829 77.065 83.4254 71.5889 85.2173C67.1518 84.0613 58.1999 78.5784 57.2109 65.2622V53.3286L71.6152 47.8511L86.124 53.3296Z" stroke="#1727FF" stroke-width="1.5"/>
<path d="M83.3467 55.5498V65.5117C83.2461 67.6598 82.5318 71.0836 80.7119 74.3359C78.909 77.558 76.0332 80.5888 71.6084 82.0732C68.0355 81.126 60.7872 76.5735 59.9902 65.4873V55.5479L71.627 50.9883L83.3467 55.5498Z" stroke="#1727FF"/>
<path d="M63.8789 66.1246L69.073 71.3186L79.4611 60.1885" stroke="#1727FF" stroke-width="2.00971" stroke-linecap="round" stroke-linejoin="round"/>
</svg>
