<svg width="90" height="87" viewBox="0 0 90 87" fill="none" xmlns="http://www.w3.org/2000/svg">
<path d="M69.5762 21.5V41.501C69.3738 45.8118 67.9016 52.6901 64.1338 59.2246C60.3962 65.7067 54.4157 71.8222 45.1924 74.7979C37.7714 72.9281 22.6937 63.7762 21.0439 41.4863V21.498L45.2227 12.3037L69.5762 21.5Z" stroke="#1727FF" stroke-width="1.5"/>
<path d="M66.1777 24.0283V41.7402C66.0059 45.5588 64.7424 51.6464 61.5068 57.4287C58.2947 63.1692 53.1521 68.5864 45.2207 71.2139C38.855 69.5807 25.8626 61.4906 24.4463 41.7393V24.0264L45.2373 15.8789L66.1777 24.0283Z" stroke="#1727FF"/>
<path d="M53.3772 38.1035H36.6221C35.3002 38.1035 34.2285 39.579 34.2285 41.399V52.9332C34.2285 54.7532 35.3002 56.2286 36.6221 56.2286H53.3772C54.6991 56.2286 55.7707 54.7532 55.7707 52.9332V41.399C55.7707 39.579 54.6991 38.1035 53.3772 38.1035Z" stroke="#1727FF" stroke-linecap="round" stroke-linejoin="round"/>
<path d="M39.0156 38.1031V33.316C39.0156 31.7289 39.6461 30.2069 40.7683 29.0847C41.8905 27.9625 43.4125 27.332 44.9996 27.332C46.5866 27.332 48.1087 27.9625 49.2309 29.0847C50.3531 30.2069 50.9835 31.7289 50.9835 33.316V38.1031" stroke="#1727FF" stroke-linecap="round" stroke-linejoin="round"/>
<circle cx="45.3306" cy="46.2998" r="4.17041" stroke="#1727FF"/>
<circle cx="45.3308" cy="46.2996" r="1.81128" fill="#1727FF" stroke="#1727FF"/>
<path d="M6.75297 51.1276C6.75297 50.4089 6.37259 49.6248 5.95929 49.2115C5.4511 48.7033 4.76186 48.4178 4.04317 48.4178C3.32449 48.4178 2.63523 48.7033 2.12705 49.2115C1.61886 49.7197 1.33338 50.4089 1.33338 51.1276C1.33338 51.8463 1.61886 52.5355 2.12705 53.0437C2.63523 53.5519 3.32449 53.8374 4.04317 53.8374C4.76186 53.8374 5.4511 53.5519 5.95929 53.0437C6.46747 52.5355 6.75297 51.8463 6.75297 51.1276ZM6.75297 51.1276H17.2939" stroke="#1727FF" stroke-width="1.5" stroke-linecap="round" stroke-linejoin="round"/>
<path d="M6.75297 39.7082C6.75297 38.9895 6.37259 38.2054 5.95929 37.7921C5.4511 37.2839 4.76186 36.9984 4.04317 36.9984C3.32449 36.9984 2.63523 37.2839 2.12705 37.7921C1.61886 38.3002 1.33338 38.9895 1.33338 39.7082C1.33338 40.4269 1.61886 41.1161 2.12705 41.6243C2.63523 42.1325 3.32449 42.418 4.04317 42.418C4.76186 42.418 5.4511 42.1325 5.95929 41.6243C6.46747 41.1161 6.75297 40.4269 6.75297 39.7082ZM6.75297 39.7082H17.2939" stroke="#1727FF" stroke-width="1.5" stroke-linecap="round" stroke-linejoin="round"/>
<path d="M6.75297 28.2887C6.75297 27.5701 6.37259 26.7859 5.95929 26.3726C5.4511 25.8644 4.76186 25.5789 4.04317 25.5789C3.32449 25.5789 2.63523 25.8644 2.12705 26.3726C1.61886 26.8808 1.33338 27.5701 1.33338 28.2887C1.33338 29.0074 1.61886 29.6967 2.12705 30.2049C2.63523 30.713 3.32449 30.9985 4.04317 30.9985C4.76186 30.9985 5.4511 30.713 5.95929 30.2049C6.46747 29.6967 6.75297 29.0074 6.75297 28.2887ZM6.75297 28.2887H17.2939" stroke="#1727FF" stroke-width="1.5" stroke-linecap="round" stroke-linejoin="round"/>
<path d="M6.75273 62.5475C6.75273 61.8288 6.37235 61.0447 5.95905 60.6314C5.45086 60.1232 4.76162 59.8377 4.04293 59.8377C3.32425 59.8377 2.63499 60.1232 2.12681 60.6314C1.61862 61.1396 1.33314 61.8288 1.33314 62.5475C1.33314 63.2662 1.61862 63.9555 2.12681 64.4636C2.63499 64.9718 3.32425 65.2573 4.04293 65.2573C4.76162 65.2573 5.45086 64.9718 5.95905 64.4636C6.46723 63.9555 6.75273 63.2662 6.75273 62.5475ZM6.75273 62.5475H21.501" stroke="#1727FF" stroke-width="1.5" stroke-linecap="round" stroke-linejoin="round"/>
<path d="M83.5996 51.1276C83.5996 50.4089 83.98 49.6248 84.3933 49.2115C84.9014 48.7033 85.5907 48.4178 86.3094 48.4178C87.0281 48.4178 87.7173 48.7033 88.2255 49.2115C88.7337 49.7197 89.0192 50.4089 89.0192 51.1276C89.0192 51.8463 88.7337 52.5355 88.2255 53.0437C87.7173 53.5519 87.0281 53.8374 86.3094 53.8374C85.5907 53.8374 84.9014 53.5519 84.3933 53.0437C83.8851 52.5355 83.5996 51.8463 83.5996 51.1276ZM83.5996 51.1276H73.0586" stroke="#1727FF" stroke-width="1.5" stroke-linecap="round" stroke-linejoin="round"/>
<path d="M83.5996 39.7082C83.5996 38.9895 83.98 38.2054 84.3933 37.7921C84.9014 37.2839 85.5907 36.9984 86.3094 36.9984C87.0281 36.9984 87.7173 37.2839 88.2255 37.7921C88.7337 38.3002 89.0192 38.9895 89.0192 39.7082C89.0192 40.4269 88.7337 41.1161 88.2255 41.6243C87.7173 42.1325 87.0281 42.418 86.3094 42.418C85.5907 42.418 84.9014 42.1325 84.3933 41.6243C83.8851 41.1161 83.5996 40.4269 83.5996 39.7082ZM83.5996 39.7082H73.0586" stroke="#1727FF" stroke-width="1.5" stroke-linecap="round" stroke-linejoin="round"/>
<path d="M83.5996 28.2887C83.5996 27.5701 83.98 26.7859 84.3933 26.3726C84.9014 25.8644 85.5907 25.5789 86.3094 25.5789C87.0281 25.5789 87.7173 25.8644 88.2255 26.3726C88.7337 26.8808 89.0192 27.5701 89.0192 28.2887C89.0192 29.0074 88.7337 29.6967 88.2255 30.2049C87.7173 30.713 87.0281 30.9985 86.3094 30.9985C85.5907 30.9985 84.9014 30.713 84.3933 30.2049C83.8851 29.6967 83.5996 29.0074 83.5996 28.2887ZM83.5996 28.2887H73.0586" stroke="#1727FF" stroke-width="1.5" stroke-linecap="round" stroke-linejoin="round"/>
<path d="M83.5998 62.5475C83.5998 61.8288 83.9802 61.0447 84.3935 60.6314C84.9017 60.1232 85.5909 59.8377 86.3096 59.8377C87.0283 59.8377 87.7175 60.1232 88.2257 60.6314C88.7339 61.1396 89.0194 61.8288 89.0194 62.5475C89.0194 63.2662 88.7339 63.9555 88.2257 64.4636C87.7175 64.9718 87.0283 65.2573 86.3096 65.2573C85.5909 65.2573 84.9017 64.9718 84.3935 64.4636C83.8853 63.9555 83.5998 63.2662 83.5998 62.5475ZM83.5998 62.5475H68.8516" stroke="#1727FF" stroke-width="1.5" stroke-linecap="round" stroke-linejoin="round"/>
</svg>
