<svg width="93" height="89" viewBox="0 0 93 89" fill="none" xmlns="http://www.w3.org/2000/svg">
<path d="M68.1465 24.4856V17.0649C68.1465 12.6467 64.5648 9.06494 60.1465 9.06494H11.8936C7.47528 9.06494 3.89355 12.6467 3.89355 17.0649V77.9941C3.89355 82.4124 7.47528 85.9941 11.8936 85.9941H60.1465C64.5648 85.9941 68.1465 82.4124 68.1465 77.9941V66.3963" stroke="#1727FF" stroke-width="1.5"/>
<path d="M68.1465 24.4856V17.0649C68.1465 12.6467 64.5648 9.06494 60.1465 9.06494H11.8936C7.47528 9.06494 3.89355 12.6467 3.89355 17.0649V77.9941C3.89355 82.4124 7.47528 85.9941 11.8936 85.9941H60.1465C64.5648 85.9941 68.1465 82.4124 68.1465 77.9941V66.3963" stroke="#1727FF" stroke-width="1.5"/>
<path d="M63.9891 23.6661L63.989 17.4154C63.9889 15.2063 62.1981 13.4155 59.989 13.4155H12.0518C9.84262 13.4155 8.05176 15.2064 8.05176 17.4155V77.6436C8.05176 79.8527 9.84262 81.6436 12.0518 81.6436H59.9889C62.198 81.6436 63.9889 79.8527 63.9889 77.6436L63.989 67.0185" stroke="#1727FF"/>
<rect x="16.3525" y="23.0645" width="14.7803" height="5.40674" rx="2.70337" stroke="#1727FF" stroke-width="1.5"/>
<rect x="16.3525" y="35.0645" width="14.7803" height="5.40674" rx="2.70337" stroke="#1727FF" stroke-width="1.5"/>
<rect x="16.3525" y="47.0645" width="14.7803" height="5.40674" rx="2.70337" stroke="#1727FF" stroke-width="1.5"/>
<rect x="16.3525" y="59.0645" width="14.7803" height="5.40674" rx="2.70337" stroke="#1727FF" stroke-width="1.5"/>
<path d="M35.6113 2.09668H36.4287C40.2767 2.0968 43.4413 5.02358 43.8174 8.77246H28.2227C28.5988 5.02358 31.7634 2.0968 35.6113 2.09668Z" stroke="#1727FF" stroke-width="1.5"/>
<path d="M35.7852 5.31348H36.2559C38.4109 5.31372 40.1864 6.93382 40.4336 9.02246H31.6064C31.8536 6.93365 33.6299 5.31348 35.7852 5.31348Z" stroke="#1727FF"/>
<path d="M50.5762 49.8306L52.9873 41.7212L59.5627 54.2141L65.4803 37.3379L70.7404 49.8306L73.3704 41.7212" stroke="#1727FF" stroke-linecap="round" stroke-linejoin="round"/>
<circle cx="61.9739" cy="45.0974" r="17.7375" stroke="#1727FF" stroke-width="1.5"/>
<circle cx="61.9736" cy="45.0977" r="21.0264" stroke="#1727FF" stroke-width="1.5"/>
<rect x="30.571" y="72.8813" width="19.9802" height="4.97743" rx="2.48871" transform="rotate(-43.4178 30.571 72.8813)" stroke="#1727FF" stroke-width="1.5"/>
</svg>
